<svg fill="none" height="100%" width="100%" viewBox="0 0 800 800" xmlns:xlink="http://www.w3.org/1999/xlink" xmlns="http://www.w3.org/2000/svg"><g id="i0"><g transform="translate(301.814,439.774)"><animateTransform repeatCount="indefinite" type="translate" attributeName="transform" dur="1s" begin="0s" calcMode="spline" values="301.814 439.774; 301.814 379.774; 301.814 479.774; 301.814 429.774; 301.814 445.774; 301.814 439.774" keyTimes="0; 0.25; 0.583333; 0.816667; 1; 1" keySplines="0.583 0 0.4 1; 0.7 0 0.599 1; 0.333 0 0.58 1; 0.333 0 0.58 1; 0.333 0 0.5 1" fill="freeze" /><g transform="scale(1,1) translate(0,0)"><g id="i1"><path fill="#713ffa" d="M30,0C30,16.569,16.569,30,0,30C-16.569,30,-30,16.569,-30,0C-30,-16.569,-16.569,-30,0,-30C16.569,-30,30,-16.569,30,0Z" /></g></g></g></g><g id="i2"><g transform="translate(401.814,439.774)"><animateTransform repeatCount="indefinite" type="translate" attributeName="transform" dur="1s" begin="0s" calcMode="spline" values="401.814 439.774; 401.814 439.774; 401.814 379.774; 401.814 479.774; 401.814 429.774; 401.814 445.774; 401.814 439.774" keyTimes="0; 0.066667; 0.333333; 0.65; 0.883334; 1; 1" keySplines="0 0 1 1; 0.583 0 0.513 1; 0.474 0 0.575 1; 0.333 0 0.58 1; 0.333 0 0.58 1; 0.333 0 0.5 1" fill="freeze" /><g transform="scale(1,1) translate(0,0)"><g id="i1"><path fill="#713ffa" d="M30,0C30,16.569,16.569,30,0,30C-16.569,30,-30,16.569,-30,0C-30,-16.569,-16.569,-30,0,-30C16.569,-30,30,-16.569,30,0Z" /></g></g></g></g><g id="i3"><g transform="translate(501.814,439.774)"><animateTransform repeatCount="indefinite" type="translate" attributeName="transform" dur="1s" begin="0s" calcMode="spline" values="501.814 439.774; 501.814 439.774; 501.814 379.774; 501.814 479.774; 501.814 429.774; 501.814 445.774; 501.814 439.774" keyTimes="0; 0.133333; 0.416667; 0.733333; 0.95; 1; 1" keySplines="0 0 1 1; 0.583 0 0.6 1; 0.4 0 0.599 1; 0.333 0 0.58 1; 0.333 0 0.58 1; 0.333 0 0.5 1" fill="freeze" /><g transform="scale(1,1) translate(0,0)"><g id="i1"><path fill="#713ffa" d="M30,0C30,16.569,16.569,30,0,30C-16.569,30,-30,16.569,-30,0C-30,-16.569,-16.569,-30,0,-30C16.569,-30,30,-16.569,30,0Z" /></g></g></g></g></svg>