<?xml version="1.0" encoding="utf-8"?>
<!-- Generator: Adobe Illustrator 24.3.0, SVG Export Plug-In . SVG Version: 6.00 Build 0)  -->
<svg version="1.1" xmlns="http://www.w3.org/2000/svg" xmlns:xlink="http://www.w3.org/1999/xlink" x="0px" y="0px"
	 viewBox="0 0 24 24" style="enable-background:new 0 0 24 24;" xml:space="preserve">
<style type="text/css">
	.st0{fill:#BABABA;}
</style>
<g id="Layer_1">
	<g>
		<path class="st0" d="M5.78,20.99c-0.01-3.09-0.02-6.19-0.03-9.28c-0.01-1.52-0.01-3.04-0.02-4.55c0-0.67-0.07-1.38,0.02-2.04
			c0.11-0.76,0.58-0.97,1.29-1.02c3.05-0.23,6.12,0.27,9.17,0.04c0.45-0.03,1.48-0.31,1.85,0.04c0.31,0.29,0.21,1.01,0.2,1.38
			c-0.06,1.58-0.16,3.15-0.21,4.73c-0.11,3.55-0.11,7.11-0.01,10.66c0.04,1.28,2.04,1.29,2,0c-0.11-3.67-0.1-7.34,0.02-11.01
			c0.06-1.71,0.34-3.51,0.2-5.22c-0.11-1.35-0.85-2.47-2.28-2.64c-0.76-0.09-1.53,0.06-2.29,0.1c-0.93,0.05-1.86,0.05-2.79,0.02
			C11.1,2.15,9.3,2.03,7.49,2.08c-1.4,0.04-2.82,0.34-3.44,1.75c-0.62,1.4-0.32,3.24-0.32,4.73c0.02,4.14,0.03,8.29,0.05,12.43
			C3.79,22.28,5.79,22.28,5.78,20.99L5.78,20.99z"/>
	</g>
	<g>
		<path class="st0" d="M5.34,21.8c2.38-1.35,4.77-2.71,7.15-4.06c0.47-0.27,0.63-0.91,0.36-1.37c-0.28-0.47-0.9-0.63-1.37-0.36
			c-2.38,1.35-4.77,2.71-7.15,4.06c-0.47,0.27-0.63,0.91-0.36,1.37C4.25,21.91,4.87,22.06,5.34,21.8L5.34,21.8z"/>
	</g>
	<g>
		<path class="st0" d="M11.48,17.73c2.35,1.38,4.72,2.7,7.07,4.08c0.47,0.27,1.1,0.11,1.37-0.36c0.27-0.47,0.11-1.09-0.36-1.37
			c-2.35-1.38-4.72-2.7-7.07-4.08c-0.47-0.27-1.1-0.11-1.37,0.36C10.84,16.83,11.01,17.46,11.48,17.73L11.48,17.73z"/>
	</g>
</g>
<g id="Layer_2">
</g>
</svg>
