<?xml version="1.0" encoding="utf-8"?>
<!-- Generator: Adobe Illustrator 24.3.0, SVG Export Plug-In . SVG Version: 6.00 Build 0)  -->
<svg version="1.1" xmlns="http://www.w3.org/2000/svg" xmlns:xlink="http://www.w3.org/1999/xlink" x="0px" y="0px"
	 viewBox="0 0 24 24" style="enable-background:new 0 0 24 24;" xml:space="preserve">
<style type="text/css">
	.st0{fill:#A03048;}
</style>
<g id="Layer_1">
</g>
<g id="Layer_2">
	<g>
		<path class="st0" d="M5.8,20.99c-0.01-3.09-0.02-6.19-0.03-9.28c-0.01-1.52-0.01-3.04-0.02-4.55c0-0.67-0.07-1.38,0.02-2.04
			c0.11-0.76,0.58-0.97,1.29-1.02c3.05-0.23,6.12,0.27,9.17,0.04c0.45-0.03,1.48-0.31,1.85,0.04c0.31,0.29,0.21,1.01,0.2,1.38
			c-0.06,1.58-0.16,3.15-0.21,4.73c-0.11,3.55-0.11,7.11-0.01,10.66c0.04,1.28,2.04,1.29,2,0c-0.11-3.67-0.1-7.34,0.02-11.01
			c0.06-1.71,0.34-3.51,0.2-5.22c-0.11-1.35-0.85-2.47-2.28-2.64c-0.76-0.09-1.53,0.06-2.29,0.1c-0.93,0.05-1.86,0.05-2.79,0.02
			c-1.81-0.04-3.61-0.16-5.42-0.11c-1.4,0.04-2.82,0.34-3.44,1.75c-0.62,1.4-0.32,3.24-0.32,4.73c0.02,4.14,0.03,8.29,0.05,12.43
			C3.8,22.28,5.8,22.28,5.8,20.99L5.8,20.99z"/>
	</g>
	<g>
		<path class="st0" d="M5.35,21.8c2.38-1.35,4.77-2.71,7.15-4.06c0.47-0.27,0.63-0.91,0.36-1.37c-0.28-0.47-0.9-0.63-1.37-0.36
			c-2.38,1.35-4.77,2.71-7.15,4.06c-0.47,0.27-0.63,0.91-0.36,1.37C4.26,21.91,4.88,22.06,5.35,21.8L5.35,21.8z"/>
	</g>
	<g>
		<path class="st0" d="M11.49,17.73c2.35,1.38,4.72,2.7,7.07,4.08c0.47,0.27,1.1,0.11,1.37-0.36c0.27-0.47,0.11-1.09-0.36-1.37
			c-2.35-1.38-4.72-2.7-7.07-4.08c-0.47-0.27-1.1-0.11-1.37,0.36C10.86,16.83,11.02,17.46,11.49,17.73L11.49,17.73z"/>
	</g>
	<g>
		<g>
			<path class="st0" d="M6.21,5.47c2.06-0.01,4.12-0.02,6.18-0.03c1.05,0,2.11-0.01,3.16-0.01c0.39,0,1.01,0.12,1.37-0.01
				c0.41,0.06,0.39-0.05-0.07-0.35c0,0.06,0,0.11,0,0.17c-0.07,0.18-0.03,0.62-0.04,0.82c-0.22,4.08-0.43,8.15-0.65,12.23
				c-0.07,1.29,1.93,1.28,2,0c0.12-2.26,0.24-4.53,0.36-6.79c0.06-1.18,0.13-2.35,0.19-3.53c0.05-1.03,0.26-2.17,0.12-3.19
				c-0.17-1.19-1.16-1.36-2.18-1.35c-1.14,0.01-2.29,0.01-3.43,0.02c-2.34,0.01-4.67,0.02-7.01,0.03C4.92,3.47,4.92,5.47,6.21,5.47
				L6.21,5.47z"/>
		</g>
	</g>
	<g>
		<g>
			<path class="st0" d="M18.4,18.05c-1.79-1.62-3.88-2.86-6.16-3.65c-0.49-0.17-1.12,0.2-1.23,0.7c-0.13,0.56,0.17,1.05,0.7,1.23
				c0.26,0.09,0.52,0.19,0.77,0.29c0.02,0.01,0.19,0.08,0.1,0.04c-0.08-0.03,0.09,0.04,0.1,0.04c0.12,0.05,0.24,0.1,0.35,0.16
				c0.5,0.23,0.99,0.49,1.46,0.77c0.46,0.27,0.9,0.57,1.33,0.88c0.05,0.04,0.1,0.08,0.16,0.12c0.05,0.03,0.11,0.09,0.03,0.02
				c0.1,0.08,0.2,0.16,0.3,0.24c0.23,0.18,0.44,0.38,0.66,0.57c0.39,0.35,1.04,0.41,1.41,0C18.76,19.08,18.82,18.42,18.4,18.05
				L18.4,18.05z"/>
		</g>
	</g>
	<g>
		<g>
			<path class="st0" d="M11.24,14.48c-2.06,0.94-4.02,2.09-5.86,3.41c-0.42,0.31-0.67,0.88-0.36,1.37c0.27,0.42,0.91,0.69,1.37,0.36
				c1.84-1.33,3.8-2.47,5.86-3.41c0.48-0.22,0.63-0.95,0.36-1.37C12.29,14.35,11.75,14.25,11.24,14.48L11.24,14.48z"/>
		</g>
	</g>
	<g>
		<g>
			<path class="st0" d="M6.72,18.6c0.11-4.38,0.23-8.75,0.34-13.13c0.03-1.29-1.97-1.29-2,0C4.95,9.85,4.84,14.22,4.72,18.6
				C4.69,19.89,6.69,19.88,6.72,18.6L6.72,18.6z"/>
		</g>
	</g>
	<g>
		<g>
			<path class="st0" d="M6.09,6.86c3.45-0.13,6.89-0.26,10.34-0.4c1.28-0.05,1.29-2.05,0-2c-3.45,0.13-6.89,0.26-10.34,0.4
				C4.81,4.91,4.8,6.91,6.09,6.86L6.09,6.86z"/>
		</g>
	</g>
	<g>
		<g>
			<path class="st0" d="M6.09,8.03c3.63-0.09,7.25-0.18,10.88-0.27c-0.32-0.42-0.64-0.84-0.96-1.27c-0.49,3.16-0.97,6.33-1.46,9.49
				c0.64,0,1.29,0,1.93,0c-0.86-2.52-0.91-5.18-0.13-7.73c0.38-1.23-1.55-1.76-1.93-0.53c-0.87,2.86-0.83,5.96,0.13,8.79
				c0.29,0.84,1.77,1.06,1.93,0c0.49-3.16,0.97-6.33,1.46-9.49c0.09-0.62-0.25-1.28-0.96-1.27C13.34,5.85,9.72,5.94,6.09,6.03
				C4.81,6.06,4.8,8.06,6.09,8.03L6.09,8.03z"/>
		</g>
	</g>
	<g>
		<g>
			<path class="st0" d="M7.49,9.35c2.31-0.34,4.66-0.35,6.98-0.1c-0.09-0.65-0.18-1.31-0.27-1.96c-2.51,0.92-5.15,1.26-7.81,1.01
				c-0.54-0.05-1,0.5-1,1c0,0.58,0.46,0.95,1,1c2.81,0.27,5.69-0.11,8.34-1.08c1.09-0.4,0.86-1.84-0.27-1.96
				c-2.51-0.27-5.02-0.19-7.51,0.17C6.42,7.5,6.13,8.18,6.26,8.65C6.41,9.23,6.95,9.43,7.49,9.35L7.49,9.35z"/>
		</g>
	</g>
	<g>
		<g>
			<path class="st0" d="M5.97,10.99c3.25,0.18,6.5,0.18,9.74-0.02c1.28-0.08,1.29-2.08,0-2c-3.24,0.2-6.5,0.2-9.74,0.02
				C4.68,8.92,4.69,10.92,5.97,10.99L5.97,10.99z"/>
		</g>
	</g>
	<g>
		<g>
			<path class="st0" d="M5.61,12.06c3.25,0.12,6.49,0.24,9.74,0.36c1.29,0.05,1.29-1.95,0-2c-3.25-0.12-6.49-0.24-9.74-0.36
				C4.33,10.01,4.33,12.01,5.61,12.06L5.61,12.06z"/>
		</g>
	</g>
	<g>
		<g>
			<path class="st0" d="M5.79,13.5c2.75,0.04,5.5,0.09,8.26,0.13c1.29,0.02,1.29-1.98,0-2c-2.75-0.04-5.5-0.09-8.26-0.13
				C4.51,11.48,4.51,13.48,5.79,13.5L5.79,13.5z"/>
		</g>
	</g>
	<g>
		<g>
			<path class="st0" d="M5.28,14.51c2.86,0.46,5.75,0.69,8.65,0.67c1.29-0.01,1.29-2.01,0-2c-2.72,0.02-5.44-0.17-8.12-0.6
				c-0.53-0.09-1.08,0.14-1.23,0.7C4.45,13.75,4.74,14.42,5.28,14.51L5.28,14.51z"/>
		</g>
	</g>
	<g>
		<g>
			<path class="st0" d="M5.09,13.88c-0.18,0.75,0.2,1.4,0.8,1.83c0.14,0.1,0.29,0.19,0.43,0.28c0.08,0.05-0.18-0.18-0.07-0.05
				c0.03,0.03,0.13,0.15,0.02,0.01c-0.06-0.08-0.06-0.08-0.02-0.01c-0.02-0.05-0.04-0.1-0.06-0.14c0.03,0.03,0.03,0.11,0.04,0.15
				c-0.01-0.09-0.02-0.18-0.04-0.27c0.01,0.11,0.01,0.21,0,0.32c0.01-0.09,0.02-0.18,0.04-0.27c-0.02,0.13-0.06,0.25-0.1,0.38
				c-0.07,0.2,0.1-0.21,0.01-0.03c-0.03,0.07-0.07,0.13-0.1,0.2c-0.23,0.45-0.15,0.98,0.26,1.29c0.38,0.29,0.97,0.29,1.31-0.08
				c0.35-0.38,0.72-0.75,1.09-1.1c0.19-0.18,0.38-0.35,0.58-0.52c0.09-0.08,0.18-0.15,0.27-0.23c0.05-0.04,0.1-0.08,0.15-0.12
				c0.06-0.05,0.03-0.03-0.09,0.07c-0.17,0.05-0.2,0.07-0.1,0.05c-0.09,0.01-0.18,0.02-0.27,0.04c0.01,0,0.03,0,0.04,0
				c-0.09-0.01-0.18-0.02-0.27-0.04c-0.15-0.04-0.35-0.19-0.43-0.33c-0.02-0.05-0.05-0.11-0.07-0.16c0.01,0.03,0.01,0.06,0.02,0.08
				c-0.01-0.09-0.02-0.18-0.04-0.27c0.01,0.06,0.01,0.11,0,0.17c0.01-0.09,0.02-0.18,0.04-0.27c-0.04,0.2-0.09,0.4-0.1,0.6
				C8.43,15.75,8.51,16,8.63,16.24c0.23,0.47,0.94,0.64,1.37,0.36c0.48-0.31,0.6-0.86,0.36-1.37c0.06,0.16,0.07,0.19,0.05,0.09
				c0.01,0.09,0.02,0.18,0.04,0.27c0-0.06,0-0.11,0.01-0.16c-0.01,0.09-0.02,0.18-0.04,0.27c0.04-0.24,0.12-0.47,0.09-0.72
				c-0.03-0.36-0.15-0.7-0.41-0.96c-0.31-0.3-0.8-0.42-1.21-0.28c-0.32,0.11-0.56,0.34-0.82,0.55c-0.66,0.56-1.28,1.15-1.87,1.78
				c0.52,0.4,1.05,0.81,1.57,1.21c0.37-0.73,0.64-1.56,0.22-2.34c-0.18-0.34-0.49-0.59-0.81-0.79c-0.06-0.04-0.12-0.07-0.17-0.11
				c-0.01-0.01-0.03-0.02-0.04-0.03c-0.08-0.06-0.06-0.04,0.07,0.06c-0.03-0.02-0.06-0.05-0.08-0.08c-0.07-0.08-0.05-0.05,0.05,0.07
				c-0.02-0.03-0.04-0.06-0.05-0.09c0.06,0.16,0.08,0.19,0.05,0.09c0.01,0.09,0.02,0.18,0.04,0.27c-0.01-0.05-0.01-0.1,0-0.15
				C7.03,14.29,7.02,14.37,7,14.46c0-0.02,0.01-0.03,0.01-0.05c0.12-0.51-0.16-1.11-0.7-1.23C5.8,13.06,5.22,13.34,5.09,13.88
				L5.09,13.88z"/>
		</g>
	</g>
</g>
</svg>
