<svg xmlns="http://www.w3.org/2000/svg" viewBox="0 0 24 24">
  <path fill="#A03048" d="M20.19,17.39c0.86-1.94,1.64-3.89,1.43-6.06c-0.18-1.85-0.63-3.91-1.73-5.44C17.6,2.69,13.48,1.97,9.8,2.47C5.9,3,3.78,6.03,2.75,9.6c-0.26,0.89-0.52,1.82-0.56,2.75c-0.05,1.01,0.3,1.93,0.66,2.85c0.63,1.66,1.43,3.21,2.82,4.36c1.49,1.23,3.33,1.93,5.22,2.21c1.01,0.15,2.06,0.23,3.07,0.03c1.1-0.21,2.05-0.8,2.97-1.41c-0.26,0.03-0.51,0.07-0.77,0.1c1.29,0.46,2.58,0.92,3.87,1.38c0.75,0.27,1.4-0.54,1.23-1.23c-0.32-1.34-0.64-2.69-0.97-4.03c-0.3-1.25-2.23-0.72-1.93,0.53c0.32,1.34,0.64,2.69,0.97,4.03c0.41-0.41,0.82-0.82,1.23-1.23c-0.7-0.25-1.4-0.5-2.1-0.75c-0.62-0.22-1.62-0.81-2.31-0.63c-0.41,0.11-0.79,0.47-1.14,0.68c-0.41,0.24-0.83,0.46-1.29,0.57c-0.89,0.22-1.92,0.11-2.82-0.05c-1.62-0.3-3.22-0.94-4.39-2.13c-0.6-0.61-1.04-1.34-1.39-2.11c-0.37-0.82-0.85-1.82-0.93-2.72c-0.09-0.93,0.27-1.94,0.53-2.82c0.27-0.92,0.6-1.82,1.09-2.65c0.89-1.53,2.2-2.56,3.96-2.87c1.94-0.33,4.13-0.28,5.95,0.53c1.93,0.86,3.03,2.4,3.54,4.41c0.29,1.14,0.52,2.35,0.36,3.53c-0.17,1.19-0.67,2.33-1.15,3.42C17.95,17.55,19.67,18.56,20.19,17.39z"/>
</svg>
