<?xml version="1.0" encoding="utf-8"?>
<!-- Generator: Adobe Illustrator 24.3.0, SVG Export Plug-In . SVG Version: 6.00 Build 0)  -->
<svg version="1.1" xmlns="http://www.w3.org/2000/svg" xmlns:xlink="http://www.w3.org/1999/xlink" x="0px" y="0px"
	 viewBox="0 0 24 24" style="enable-background:new 0 0 24 24;" xml:space="preserve">
<g id="Layer_1">
	<g>
		<path d="M2.98,4.04c6.03,0.01,12.06,0.03,18.09,0.04c1.29,0,1.29-2,0-2C15.04,2.07,9.01,2.05,2.98,2.04
			C1.69,2.04,1.69,4.04,2.98,4.04L2.98,4.04z"/>
	</g>
	<g>
		<path d="M2.93,12.96c6.03,0.14,12.06,0.13,18.09-0.03c1.28-0.03,1.29-2.03,0-2c-6.03,0.16-12.06,0.16-18.09,0.03
			C1.65,10.93,1.65,12.93,2.93,12.96L2.93,12.96z"/>
	</g>
	<g>
		<path d="M2.93,21.87c6.01,0.09,12.03,0.11,18.04,0.06c1.29-0.01,1.29-2.01,0-2c-6.01,0.05-12.03,0.03-18.04-0.06
			C1.65,19.85,1.65,21.85,2.93,21.87L2.93,21.87z"/>
	</g>
</g>
<g id="Layer_2">
</g>
</svg>
