<?xml version="1.0" encoding="utf-8"?>
<!-- Generator: Adobe Illustrator 24.3.0, SVG Export Plug-In . SVG Version: 6.00 Build 0)  -->
<svg version="1.1" xmlns="http://www.w3.org/2000/svg" xmlns:xlink="http://www.w3.org/1999/xlink" x="0px" y="0px"
	 viewBox="0 0 24 24" style="enable-background:new 0 0 24 24;" xml:space="preserve">
<style type="text/css">
	.st0{fill:#A03048;}
</style>
<g id="Layer_1">
	<g>
		<path class="st0" d="M12.54,6.05c-1.62-1.91-3.96-3.52-6.59-3.02c-2.32,0.45-3.77,2.63-3.87,4.9c-0.11,2.65,1.47,4.95,3.16,6.83
			c1.97,2.19,4.04,4.29,6.06,6.44c0.89,0.94,2.3-0.48,1.41-1.41c-1.62-1.72-3.25-3.44-4.87-5.16c-1.4-1.48-2.94-3.01-3.54-5.01
			C3.82,7.97,4.14,5.74,5.97,5.08C8,4.36,9.92,6.05,11.12,7.46C11.96,8.45,13.37,7.02,12.54,6.05L12.54,6.05z"/>
	</g>
	<g>
		<path class="st0" d="M12.54,7.46c1.34-1.47,3.01-3.05,5.16-2.28c2.01,0.72,2.54,2.91,1.86,4.75c-0.73,1.99-2.14,3.84-3.53,5.42
			c-1.43,1.62-3.03,3.08-4.72,4.43c-1.01,0.8,0.42,2.21,1.41,1.41c2.13-1.7,4.12-3.58,5.8-5.73c1.55-1.98,3.38-4.52,3.36-7.15
			c-0.01-2.43-1.76-4.67-4.15-5.19c-2.75-0.59-4.86,1.01-6.62,2.93C10.26,7,11.67,8.42,12.54,7.46L12.54,7.46z"/>
	</g>
</g>
<g id="Layer_2">
</g>
</svg>
