<?xml version="1.0" encoding="utf-8"?>
<!-- Generator: Adobe Illustrator 24.3.0, SVG Export Plug-In . SVG Version: 6.00 Build 0)  -->
<svg version="1.1" xmlns="http://www.w3.org/2000/svg" xmlns:xlink="http://www.w3.org/1999/xlink" x="0px" y="0px"
	 viewBox="0 0 24 24" style="enable-background:new 0 0 24 24;" xml:space="preserve">
<style type="text/css">
	.st0{fill:#BABABA;}
</style>
<g id="Layer_1">
</g>
<g id="Layer_2">
</g>
<g id="Layer_3">
	<g>
		<path class="st0" d="M5.33,21.61c1.19,0.06,3.53,0.61,4.24-0.71c0.31-0.58,0.26-1.3,0.25-1.93c-0.01-0.88-0.06-1.78-0.01-2.66
			c0.06-1.01,0.73-0.92,1.59-0.95c0.45-0.02,0.9-0.03,1.35-0.05c0.24-0.01,1.06-0.17,1.24-0.08c0.26,0.15,0.13,1.98,0.14,2.4
			c0,0.99-0.03,1.99-0.08,2.98c-0.03,0.55,0.49,1.02,1.02,1.02c1.08-0.01,2.64,0.26,3.62-0.27c0.95-0.51,1.02-1.53,1-2.5
			c-0.02-1.24-0.05-2.47-0.07-3.71c-0.01-0.47-0.21-1.61,0.19-1.96c0.31-0.27,1.02-0.19,1.4-0.42c2.45-1.5-1.5-4.03-2.55-4.94
			c-2.03-1.77-4.05-3.54-6.08-5.32c-0.43-0.37-1.01-0.39-1.44,0c-1.57,1.45-3.13,2.9-4.7,4.35C5.66,7.57,4.88,8.29,4.1,9.02
			C3.47,9.6,2.5,10.21,2.12,11c-0.34,0.71-0.05,1.52,0.58,1.96c0.37,0.26,0.72,0.25,1.11,0.41c0.37,0.16,0.33,0.39,0.33,0.8
			c0.02,2.14,0.21,4.29,0.17,6.43c-0.02,1.31,2.01,1.31,2.03,0c0.03-1.99-0.19-3.97-0.18-5.96c0-0.73,0.03-1.51-0.34-2.17
			c-0.16-0.28-0.37-0.53-0.64-0.71c-0.19-0.12-0.87-0.52-1.1-0.4c-0.04,0.18-0.08,0.36-0.11,0.55c0.09-0.08,0.17-0.16,0.26-0.24
			c0.19-0.12,0.36-0.33,0.52-0.48c0.35-0.32,0.7-0.64,1.04-0.97c0.74-0.68,1.48-1.37,2.22-2.05c1.52-1.41,3.04-2.82,4.57-4.23
			c-0.48,0-0.96,0-1.44,0c1.63,1.43,3.26,2.85,4.89,4.28c0.84,0.73,1.67,1.46,2.51,2.2c0.28,0.24,0.82,0.94,1.19,1.04
			c0.21,0.26,0.34,0.12,0.39-0.41c-0.1,0.02-0.21,0.03-0.31,0.05c-0.22-0.02-0.48,0.08-0.68,0.16c-1.94,0.75-1.56,3.26-1.53,4.91
			c0.02,1.01,0.07,2.03,0.06,3.04c0,0.23,0.03,0.32-0.09,0.4c-0.09,0.05-0.7-0.01-0.77-0.01c-0.58,0.01-1.16,0.01-1.73,0.02
			c0.34,0.34,0.68,0.68,1.02,1.02c0.07-1.17,0.1-2.33,0.08-3.5c-0.01-0.88,0.09-1.95-0.26-2.77c-0.35-0.83-1.11-1.1-1.96-1.1
			c-1.1-0.01-2.22,0.04-3.32,0.12c-2.01,0.15-2.83,1.43-2.84,3.35c0,0.54,0.01,1.08,0.01,1.62c0,0.3-0.16,1.23,0,1.48
			c-0.01,0.04-0.01,0.09-0.02,0.13c0.08-0.09,0.15-0.19,0.23-0.28c0.01,0.03-0.69,0.01-0.74,0.01c-0.64-0.03-1.28-0.06-1.93-0.09
			C4.02,19.52,4.03,21.55,5.33,21.61L5.33,21.61z"/>
	</g>
</g>
</svg>
