<?xml version="1.0" encoding="utf-8"?>
<!-- Generator: Adobe Illustrator 24.3.0, SVG Export Plug-In . SVG Version: 6.00 Build 0)  -->
<svg version="1.1" xmlns="http://www.w3.org/2000/svg" xmlns:xlink="http://www.w3.org/1999/xlink" x="0px" y="0px"
	 viewBox="0 0 24 24" style="enable-background:new 0 0 24 24;" xml:space="preserve">
<style type="text/css">
	.st0{fill:#A03048;}
</style>
<g id="Layer_1">
</g>
<g id="Layer_2">
	<g>
		<path class="st0" d="M5.33,21.61c1.19,0.06,3.53,0.61,4.24-0.71c0.31-0.58,0.26-1.3,0.25-1.93c-0.01-0.88-0.06-1.78-0.01-2.66
			c0.06-1.01,0.73-0.92,1.59-0.95c0.45-0.02,0.9-0.03,1.35-0.05c0.24-0.01,1.06-0.17,1.24-0.08c0.26,0.15,0.13,1.98,0.14,2.4
			c0,0.99-0.03,1.99-0.08,2.98c-0.03,0.55,0.49,1.02,1.02,1.02c1.08-0.01,2.64,0.26,3.62-0.27c0.95-0.51,1.02-1.53,1-2.5
			c-0.02-1.24-0.05-2.47-0.07-3.71c-0.01-0.47-0.21-1.61,0.19-1.96c0.31-0.27,1.02-0.19,1.4-0.42c2.45-1.5-1.5-4.03-2.55-4.94
			c-2.03-1.77-4.05-3.54-6.08-5.32c-0.43-0.37-1.01-0.39-1.44,0c-1.57,1.45-3.13,2.9-4.7,4.35C5.66,7.57,4.88,8.29,4.1,9.02
			C3.47,9.6,2.5,10.21,2.12,11c-0.34,0.71-0.05,1.52,0.58,1.96c0.37,0.26,0.72,0.25,1.11,0.41c0.37,0.16,0.33,0.39,0.33,0.8
			c0.02,2.14,0.21,4.29,0.17,6.43c-0.02,1.31,2.01,1.31,2.03,0c0.03-1.99-0.19-3.97-0.18-5.96c0-0.73,0.03-1.51-0.34-2.17
			c-0.16-0.28-0.37-0.53-0.64-0.71c-0.19-0.12-0.87-0.52-1.1-0.4c-0.04,0.18-0.08,0.36-0.11,0.55c0.09-0.08,0.17-0.16,0.26-0.24
			c0.19-0.12,0.36-0.33,0.52-0.48c0.35-0.32,0.7-0.64,1.04-0.97c0.74-0.68,1.48-1.37,2.22-2.05c1.52-1.41,3.04-2.82,4.57-4.23
			c-0.48,0-0.96,0-1.44,0c1.63,1.43,3.26,2.85,4.89,4.28c0.84,0.73,1.67,1.46,2.51,2.2c0.28,0.24,0.82,0.94,1.19,1.04
			c0.21,0.26,0.34,0.12,0.39-0.41c-0.1,0.02-0.21,0.03-0.31,0.05c-0.22-0.02-0.48,0.08-0.68,0.16c-1.94,0.75-1.56,3.26-1.53,4.91
			c0.02,1.01,0.07,2.03,0.06,3.04c0,0.23,0.03,0.32-0.09,0.4c-0.09,0.05-0.7-0.01-0.77-0.01c-0.58,0.01-1.16,0.01-1.73,0.02
			c0.34,0.34,0.68,0.68,1.02,1.02c0.07-1.17,0.1-2.33,0.08-3.5c-0.01-0.88,0.09-1.95-0.26-2.77c-0.35-0.83-1.11-1.1-1.96-1.1
			c-1.1-0.01-2.22,0.04-3.32,0.12c-2.01,0.15-2.83,1.43-2.84,3.35c0,0.54,0.01,1.08,0.01,1.62c0,0.3-0.16,1.23,0,1.48
			c-0.01,0.04-0.01,0.09-0.02,0.13c0.08-0.09,0.15-0.19,0.23-0.28c0.01,0.03-0.69,0.01-0.74,0.01c-0.64-0.03-1.28-0.06-1.93-0.09
			C4.02,19.52,4.03,21.55,5.33,21.61L5.33,21.61z"/>
	</g>
	<g>
		<g>
			<path class="st0" d="M5.92,13.86c1.92-0.09,3.84-0.25,5.75-0.47c1.09-0.13,2.17-0.27,3.25-0.43c0.1-0.01,0.2-0.03,0.3-0.04
				c0.28-0.04,0.25-0.04-0.09,0.01c0.16-0.06,0.41-0.04,0.58-0.04c0.13,0,0.45-0.06,0.57,0.01c-0.35-0.05-0.39-0.05-0.11,0.01
				c0.12,0.03,0.24,0.07,0.36,0.12c1.22,0.47,2.8-0.52,3.08-1.75c0.33-1.43-0.44-2.57-1.75-3.08c-1.16-0.44-2.39-0.33-3.59-0.16
				c-0.48,0.07-0.96,0.14-1.43,0.21c-0.55,0.08,0.41-0.05-0.2,0.03c-0.25,0.03-0.5,0.06-0.76,0.09c-1.98,0.24-3.97,0.4-5.96,0.5
				c-1.3,0.06-2.56,1.1-2.5,2.5C3.48,12.66,4.53,13.93,5.92,13.86L5.92,13.86z"/>
		</g>
	</g>
	<g>
		<g>
			<path class="st0" d="M17.91,8.16c-0.28-0.1-0.56-0.21-0.84-0.32c-0.5-0.2,0.53,0.26,0.04,0.02c-0.13-0.07-0.27-0.13-0.4-0.2
				c-0.24-0.13-0.46-0.27-0.69-0.42c-0.2-0.13,0.46,0.4,0.05,0.03c-0.11-0.1-0.2-0.21-0.31-0.31c-0.21-0.2,0.29,0.47,0.08,0.1
				c-0.07-0.12-0.15-0.24-0.22-0.36c-0.14-0.25-0.27-0.5-0.41-0.75c-0.46-0.78-1.04-1.43-1.82-1.9c-0.99-0.61-2.2-0.33-3.03,0.39
				c-0.15,0.13-0.31,0.27-0.47,0.4C9.84,4.88,9.36,5.25,9.67,5.02C9.99,4.79,9.41,5.2,9.36,5.24c-0.14,0.1-0.29,0.2-0.43,0.3
				C8.15,6.05,7.35,6.46,6.78,7.21c-0.57,0.74-0.77,1.63-1.03,2.5c-0.23,0.76-0.48,1.5-0.76,2.24c-0.46,1.23,0.51,2.79,1.75,3.08
				c1.42,0.32,2.58-0.43,3.08-1.75c0.26-0.68,0.5-1.37,0.71-2.06c0.1-0.31,0.18-0.63,0.27-0.94c0.03-0.11,0.24-0.56,0.03-0.19
				c-0.09,0.2-0.1,0.22,0,0.03c-0.25,0.28-0.3,0.35-0.17,0.22c0.2-0.2-0.47,0.28-0.08,0.08c0.15-0.08,0.29-0.17,0.43-0.26
				c0.3-0.19,0.59-0.38,0.88-0.58c0.7-0.5,1.38-1.03,2.02-1.59c-1.01,0.13-2.02,0.26-3.03,0.39c0.41,0.26-0.4-0.37-0.08-0.05
				c0.34,0.33-0.28-0.46-0.05-0.07c0.14,0.25,0.29,0.49,0.42,0.74c0.36,0.67,0.8,1.32,1.37,1.83c1.17,1.06,2.58,1.64,4.05,2.18
				c1.23,0.45,2.79-0.5,3.08-1.75C19.98,9.82,19.23,8.64,17.91,8.16L17.91,8.16z"/>
		</g>
	</g>
	<g>
		<g>
			<path class="st0" d="M12.95,14.21c1.02-0.09,2.07-0.09,3.09,0.04c-0.22-0.03-0.44-0.06-0.66-0.09c0.09,0.02,0.17,0.03,0.26,0.06
				c-0.2-0.08-0.4-0.17-0.6-0.25c0.08,0.04,0.15,0.07,0.22,0.12c-0.17-0.13-0.34-0.26-0.51-0.39c0.04,0.03,0.08,0.07,0.11,0.11
				c-0.13-0.17-0.26-0.34-0.39-0.51c0.05,0.06,0.08,0.13,0.12,0.2c-0.08-0.2-0.17-0.4-0.25-0.6c0.05,0.13,0.08,0.25,0.1,0.39
				c-0.03-0.22-0.06-0.44-0.09-0.66c0.09,0.77,0.03,1.59,0.03,2.37c0,0.86,0,1.71,0,2.57c0,0.64,0.28,1.31,0.73,1.77
				c0.43,0.43,1.15,0.76,1.77,0.73c1.36-0.06,2.5-1.1,2.5-2.5c0-0.92,0-1.83,0-2.75c0-1,0.08-2.04-0.15-3.02
				c-0.2-0.85-0.75-1.59-1.48-2.05c-0.64-0.41-1.38-0.48-2.12-0.55c-0.9-0.08-1.79-0.07-2.69,0c-0.67,0.06-1.28,0.24-1.77,0.73
				c-0.43,0.43-0.76,1.15-0.73,1.77c0.03,0.65,0.24,1.32,0.73,1.77C11.64,13.9,12.29,14.26,12.95,14.21L12.95,14.21z"/>
		</g>
	</g>
	<g>
		<g>
			<path class="st0" d="M4.49,14.94c0.12,0.97,0.15,1.95,0.1,2.93c-0.01,0.34,0.06,0.67,0.22,0.96c0.1,0.31,0.27,0.58,0.52,0.8
				c0.23,0.24,0.49,0.42,0.8,0.52c0.3,0.16,0.62,0.23,0.96,0.22c0.65-0.03,1.32-0.24,1.77-0.73c0.13-0.17,0.26-0.34,0.39-0.51
				c0.23-0.39,0.34-0.81,0.34-1.26c0.05-0.98,0.02-1.96-0.1-2.93c0.01-0.34-0.06-0.67-0.22-0.96c-0.1-0.31-0.27-0.58-0.52-0.8
				c-0.23-0.24-0.49-0.42-0.8-0.52c-0.3-0.16-0.62-0.23-0.96-0.22c-0.65,0.03-1.32,0.24-1.77,0.73c-0.13,0.17-0.26,0.34-0.39,0.51
				C4.6,14.07,4.49,14.49,4.49,14.94L4.49,14.94z"/>
		</g>
	</g>
	<g>
		<g>
			<path class="st0" d="M15.09,15.78c0.09,0.08,0.26,0.21,0.3,0.32c-0.08-0.11-0.09-0.12-0.02-0.03c0.01,0.02,0.03,0.04,0.04,0.06
				c0.05,0.07,0.09,0.14,0.14,0.22c0.04,0.06,0.07,0.13,0.1,0.19c0.02,0.03,0.03,0.07,0.05,0.1c-0.05-0.12-0.06-0.14-0.03-0.07
				c0.05,0.15,0.1,0.3,0.14,0.46c0.12,0.5,0.73,0.87,1.23,0.7c0.51-0.18,0.87-0.52,1.03-1.04c0.2-0.65-0.33-1.24-0.96-1.27
				c-0.44-0.02-0.94,0.17-1.22,0.53c-0.23,0.29-0.36,0.6-0.26,0.97c0.09,0.31,0.37,0.64,0.7,0.7c0.15,0.03,0.31,0.06,0.45,0.11
				c0.06,0.02,0.28,0.07,0.05,0.01c0.07,0.02,0.15,0.07,0.21,0.1c0-0.58,0-1.15,0-1.73c-0.37,0.28-0.75,0.57-0.95,1
				c-0.17,0.35-0.22,0.71-0.15,1.1c0.03,0.19,0.1,0.36,0.16,0.54c0.06,0.19,0.1,0.39,0.15,0.59c0.02,0.12,0.02,0.11,0-0.04
				c0,0.11,0.01,0.09,0.03-0.07c0.12-0.32,0.35-0.49,0.67-0.51c-0.08,0-0.08,0,0.02,0.01c0.18,0.02-0.06-0.03-0.1-0.04
				c-0.09-0.03-0.18-0.07-0.27-0.09c-0.39-0.09-0.75-0.04-1.1,0.14c-0.46,0.24-0.64,0.93-0.36,1.37c0.3,0.47,0.87,0.62,1.37,0.36
				c-0.14,0.08-0.29,0.1-0.44,0.06c0.05,0.01,0.09,0.02,0.14,0.04c0.08,0.03,0.16,0.07,0.25,0.09c0.27,0.08,0.55,0.08,0.82,0.03
				c0.34-0.07,0.65-0.32,0.81-0.62c0.17-0.3,0.18-0.63,0.14-0.96c-0.06-0.43-0.2-0.82-0.32-1.24c-0.01-0.03-0.02-0.07-0.03-0.11
				c0.03,0.08,0.03,0.17,0,0.26c0.03-0.1,0.02-0.08-0.03,0.06c0.02-0.04,0.04-0.08,0.07-0.11c-0.09,0.11-0.1,0.13-0.03,0.05
				c0.03-0.03,0.07-0.07,0.1-0.1c0.03-0.03,0.07-0.06,0.11-0.09c-0.11,0.08-0.12,0.09-0.04,0.03c0.29-0.22,0.5-0.48,0.5-0.86
				c0-0.34-0.19-0.7-0.5-0.86c-0.37-0.2-0.77-0.36-1.19-0.43c0.15,0.56,0.29,1.11,0.44,1.67c0.06-0.08,0.17-0.13-0.01-0.02
				c-0.06,0.04-0.36,0.07-0.19,0.07c-0.32-0.42-0.64-0.84-0.96-1.27c0.06-0.18,0.2-0.3,0.37-0.36c0.41,0.23,0.82,0.47,1.23,0.7
				c-0.2-0.81-0.63-1.56-1.24-2.14c-0.38-0.36-1.04-0.4-1.41,0C14.73,14.76,14.69,15.4,15.09,15.78L15.09,15.78z"/>
		</g>
	</g>
</g>
<g id="Layer_3">
</g>
</svg>
