<svg xmlns="http://www.w3.org/2000/svg" viewBox="0 0 24 24">
  <path fill="#BABABA" d="M4.71,21.36c1.17,0.06,3.47,0.6,4.18-0.7c0.31-0.57,0.25-1.28,0.25-1.9C9.13,17.89,9.08,17,9.13,16.14c0.05-1,0.72-0.91,1.56-0.94c0.44-0.02,0.89-0.03,1.33-0.05c0.24-0.01,1.04-0.17,1.22-0.07c0.26,0.14,0.13,1.94,0.13,2.36c0,0.98-0.03,1.95-0.08,2.93c-0.03,0.54,0.48,1,1,1c1.06-0.01,2.59,0.26,3.56-0.27c0.93-0.51,1-1.51,0.99-2.46c-0.02-1.22-0.05-2.43-0.07-3.65c-0.01-0.47-0.21-1.59,0.19-1.93c0.3-0.26,1-0.19,1.38-0.42c2.41-1.48-1.47-3.96-2.51-4.87c-1.99-1.74-3.99-3.49-5.98-5.23c-0.42-0.37-1-0.39-1.41,0C8.89,3.97,7.35,5.4,5.81,6.83C5.04,7.54,4.27,8.25,3.5,8.97c-0.62,0.57-1.58,1.18-1.95,1.95c-0.33,0.7-0.05,1.49,0.57,1.92c0.36,0.25,0.71,0.24,1.09,0.4c0.37,0.15,0.32,0.38,0.33,0.79c0.02,2.11,0.2,4.22,0.17,6.33c-0.02,1.29,1.98,1.29,2,0c0.03-1.96-0.19-3.91-0.18-5.86c0-0.72,0.03-1.49-0.34-2.14c-0.15-0.28-0.36-0.52-0.63-0.7c-0.18-0.12-0.86-0.51-1.08-0.39c-0.04,0.18-0.07,0.36-0.11,0.54c0.09-0.08,0.17-0.16,0.26-0.24c0.19-0.12,0.35-0.33,0.51-0.48c0.34-0.32,0.68-0.63,1.03-0.95C5.9,9.47,6.63,8.8,7.35,8.12c1.5-1.39,2.99-2.77,4.49-4.16c-0.47,0-0.94,0-1.41,0c1.6,1.4,3.21,2.8,4.81,4.21c0.82,0.72,1.65,1.44,2.47,2.16c0.27,0.24,0.81,0.93,1.17,1.02c0.2,0.25,0.33,0.12,0.38-0.4c-0.1,0.02-0.2,0.03-0.31,0.05c-0.21-0.02-0.47,0.08-0.66,0.15c-1.9,0.74-1.54,3.21-1.51,4.83c0.02,0.99,0.07,1.99,0.06,2.99c0,0.23,0.03,0.32-0.09,0.39c-0.08,0.05-0.69-0.01-0.76-0.01c-0.57,0-1.14,0.01-1.71,0.01c0.33,0.33,0.67,0.67,1,1c0.07-1.15,0.1-2.3,0.08-3.45c-0.01-0.86,0.08-1.92-0.26-2.73c-0.34-0.82-1.09-1.08-1.93-1.08C12.1,13.1,11,13.15,9.92,13.23c-1.98,0.15-2.79,1.4-2.8,3.3c0,0.53,0.01,1.06,0.01,1.59c0,0.29-0.15,1.21,0,1.46c-0.01,0.04-0.01,0.09-0.02,0.13c0.07-0.09,0.15-0.18,0.22-0.28c0.01,0.03-0.68,0.01-0.73,0.01c-0.63-0.03-1.26-0.06-1.89-0.09C3.43,19.3,3.43,21.3,4.71,21.36L4.71,21.36z"/>
</svg>
