<svg xmlns="http://www.w3.org/2000/svg" viewBox="0 0 24 24">
  <path fill="currentColor" d="M6.87,21.8c-0.7-0.28-1.22-0.65-1.57-1.11c-0.34-0.46-0.55-0.98-0.63-1.56c-0.07-0.58-0.06-1.18,0.05-1.8c0.11-0.62,0.26-1.24,0.47-1.85c0.2-0.61,0.4-1.17,0.6-1.69c0.26-0.64,0.48-1.16,0.68-1.55l0.14-0.29c0.07-0.12,0.26-0.16,0.55-0.12c0.29,0.04,0.61,0.12,0.95,0.25c0.25,0.1,0.49,0.21,0.72,0.34c0.23,0.13,0.4,0.27,0.53,0.41c0.12,0.14,0.16,0.27,0.12,0.39l-0.14,0.31c-0.32,0.71-0.62,1.43-0.9,2.16c-0.39,1.03-0.66,1.88-0.8,2.55c-0.18,0.85-0.11,1.33,0.2,1.45c0.54,0.18,1.12-0.21,1.71-1.15c0.44-0.7,0.89-1.65,1.35-2.86c0.15-0.4,0.29-0.76,0.39-1.06l0.15-0.41c0.05-0.13,0.18-0.19,0.41-0.17c0.22,0.02,0.45,0.07,0.69,0.16c0.23,0.09,0.43,0.2,0.6,0.32c0.17,0.13,0.24,0.24,0.2,0.34c-0.09,0.22-0.19,0.5-0.31,0.84c-0.15,0.42-0.3,0.82-0.45,1.22c-0.1,0.27-0.2,0.52-0.3,0.74C10.72,21.2,8.91,22.58,6.87,21.8z"/>
  <path fill="currentColor" d="M13.8,14.57c-0.12-0.15-0.26-0.31-0.4-0.49c-0.21-0.26-0.42-0.53-0.63-0.81c-0.17-0.23-0.32-0.41-0.43-0.56c-0.05-0.07-0.03-0.17,0.07-0.3c0.1-0.14,0.23-0.26,0.38-0.39c0.16-0.13,0.32-0.22,0.48-0.28c0.16-0.06,0.28-0.05,0.35,0.03l0.21,0.27c0.15,0.2,0.33,0.44,0.55,0.71c0.64,0.8,1.2,1.41,1.7,1.84c0.67,0.57,1.2,0.72,1.57,0.46c0.2-0.16,0.14-0.54-0.2-1.14c-0.26-0.48-0.67-1.06-1.21-1.74c-0.38-0.49-0.78-0.96-1.2-1.42l-0.18-0.2c-0.06-0.08-0.07-0.19,0-0.32c0.06-0.14,0.16-0.28,0.3-0.43c0.14-0.15,0.29-0.29,0.46-0.43c0.23-0.18,0.44-0.32,0.66-0.41c0.21-0.1,0.36-0.11,0.44-0.04L16.9,9.1c0.24,0.24,0.54,0.58,0.88,1c0.27,0.34,0.55,0.72,0.85,1.13c0.3,0.41,0.56,0.84,0.79,1.29c0.23,0.45,0.38,0.89,0.47,1.35c0.08,0.45,0.05,0.89-0.1,1.32c-0.15,0.43-0.46,0.83-0.92,1.21C17.51,17.48,15.82,16.86,13.8,14.57z"/>
  <path fill="currentColor" d="M4.76,9.33c0.52,0.13,0.99,0.45,1.31,0.88c0.11,0.14,0.2,0.31,0.18,0.49C6.22,10.95,6,11.12,5.77,11.22c-0.33,0.14-0.71,0.17-1.04,0.04C3.82,10.89,3.88,9.71,4.76,9.33z"/>
  <path fill="currentColor" d="M6.42,9.26c-0.79-0.57-1.4-1.44-1.49-2.41c-0.09-0.97,0.4-2.01,1.29-2.41C6.53,4.3,6.91,4.25,7.2,4.43C7.44,4.58,7.57,4.84,7.67,5.1C8.15,6.28,8.38,7.55,8.5,8.81c0.05,0.5-0.07,1.05-0.68,1.01C7.31,9.79,6.83,9.56,6.42,9.26z"/>
  <path fill="currentColor" d="M8.73,4.03C8.71,3.6,8.75,3.15,8.99,2.8c0.25-0.37,0.69-0.57,1.12-0.69c0.44-0.12,0.91-0.17,1.34-0.04C12,2.24,12.44,2.7,12.67,3.23s0.28,1.13,0.23,1.71c-0.05,0.65-0.22,1.28-0.39,1.91c-0.09,0.36-0.19,0.73-0.38,1.05c-0.19,0.32-0.48,0.6-0.84,0.69c-0.7,0.17-1.14-0.42-1.44-0.94c-0.4-0.72-0.74-1.48-0.93-2.28C8.82,4.93,8.75,4.48,8.73,4.03z"/>
  <path fill="currentColor" d="M15.41,4.63c0.5,0.24,0.81,0.79,0.88,1.34c0.07,0.57-0.07,1.16-0.4,1.63c-0.2,0.29-0.49,0.54-0.83,0.65s-0.75,0.04-1-0.21c-0.25-0.25-0.32-0.62-0.35-0.97c-0.05-0.57-0.11-1.48,0.18-2C14.18,4.58,14.9,4.39,15.41,4.63z"/>
</svg>
