<svg xmlns="http://www.w3.org/2000/svg" viewBox="0 0 24 24">
  <path fill="#A03048" d="M18.8,12.53c0.08-0.15,0.16-0.29,0.25-0.44c0.05-0.08,0.1-0.16,0.16-0.24c0.01-0.02,0.09-0.12,0.01-0.01
			c-0.09,0.12,0.05-0.05,0.06-0.06c0.06-0.06,0.12-0.11,0.18-0.17c0.07-0.08-0.05,0.04-0.06,0.05c0.02,0,0.08-0.06,0.11-0.07
			c0.03-0.02,0.1-0.04,0.11-0.06c0,0.01-0.19,0.07-0.09,0.04c0.04-0.01,0.08-0.03,0.12-0.04c0.04-0.01,0.18-0.03,0.02-0.01
			c-0.19,0.02,0.09,0.01,0.12,0.01c-0.14,0.04-0.19-0.05-0.08-0.01c0.03,0.01,0.1,0.03,0.12,0.03c0,0-0.19-0.09-0.1-0.04
			c0.11,0.06-0.14-0.14-0.05-0.05c0.16,0.17-0.11-0.15,0.03,0.03c0.01,0.02,0.02,0.07,0.04,0.08c-0.1-0.06-0.06-0.19-0.04-0.07
			c0,0.03,0.02,0.1,0.03,0.12c0,0-0.02-0.22-0.01-0.11c0,0.07,0.01,0.14,0.01,0.22c0,0.04,0,0.08-0.01,0.13
			c-0.01,0.14,0-0.03,0.01-0.08c-0.05,0.15-0.07,0.32-0.11,0.47c-0.03,0.08-0.05,0.16-0.08,0.24c-0.01,0.03-0.03,0.07-0.04,0.1
			c-0.01,0.03-0.03,0.07-0.04,0.1c0.01-0.03,0.03-0.07,0.04-0.1c-0.02,0.15-0.16,0.33-0.23,0.46c-0.1,0.17-0.2,0.33-0.31,0.49
			c-0.02,0.03-0.04,0.06-0.06,0.09c-0.08,0.11,0.11-0.13,0.02-0.03c-0.06,0.06-0.11,0.13-0.16,0.2c-0.12,0.14-0.25,0.26-0.38,0.38
			c-0.1,0.09,0.15-0.09,0.03-0.03c-0.03,0.02-0.06,0.04-0.09,0.06c-0.14,0.09,0.02,0,0.05-0.02c-0.04,0.01-0.14,0.02,0,0.01
			c0.15-0.01,0.01-0.01-0.03-0.01c-0.1,0.01,0.1,0.01,0.11,0.02c0.01,0.01-0.12-0.04-0.12-0.04c0.01-0.01,0.24,0.09,0.04,0
			c-0.09-0.04,0.07,0.05,0.07,0.06c0,0.01-0.16-0.2-0.05-0.04c0.11,0.17-0.14-0.23-0.04-0.07c0.07,0.11,0-0.02-0.01-0.06
			c-0.01-0.02-0.01-0.05-0.02-0.07c-0.01-0.08-0.01-0.05,0.01,0.08c0.02-0.01-0.02-0.27,0-0.3c-0.01,0.01-0.05,0.24,0,0.04
			c0.01-0.05,0.02-0.1,0.04-0.15c0.03-0.1,0.06-0.2,0.1-0.31c0.06-0.18,0-0.02-0.01,0.02c0.02-0.06,0.06-0.12,0.08-0.18
			c0.05-0.11,0.11-0.22,0.16-0.33c0.24-0.47,0.14-1.11-0.36-1.37c-0.46-0.24-1.12-0.14-1.37,0.36c-0.3,0.59-0.57,1.18-0.63,1.85
			c-0.07,0.66,0.13,1.31,0.56,1.82c0.45,0.53,1.19,0.78,1.86,0.64c0.57-0.12,1.03-0.52,1.41-0.94c0.69-0.77,1.26-1.75,1.47-2.77
			c0.12-0.57,0.13-1.15-0.1-1.69c-0.24-0.57-0.74-1.04-1.36-1.16c-0.75-0.14-1.46,0.08-2.05,0.56c-0.45,0.37-0.76,0.89-1.05,1.4
			c-0.25,0.46-0.13,1.11,0.36,1.37C17.9,13.14,18.53,13.02,18.8,12.53L18.8,12.53z"/>
  <path fill="#A03048" d="M15.2,7.3c0.05-0.22,0.11-0.43,0.19-0.64c0.01-0.03,0.08-0.2,0.03-0.09c-0.05,0.1,0.02-0.03,0.02-0.04
			c0.06-0.12,0.12-0.23,0.2-0.34c0.02-0.02,0.13-0.17,0.05-0.08c-0.07,0.08,0.03-0.03,0.03-0.03c0.04-0.04,0.29-0.25,0.11-0.12
			C15.92,5.9,16,5.85,16.08,5.8c0.03-0.02,0.19-0.07,0.07-0.03c-0.13,0.04,0.11-0.03,0.11-0.03c0.12-0.04,0.03-0.05-0.03-0.01
			c0.02-0.01,0.1-0.01,0.12-0.01c0.03,0,0.21,0,0.07-0.01c-0.12,0-0.01,0,0.02,0.01c0.03,0.01,0.12,0.02,0.15,0.05
			c-0.02-0.01-0.2-0.1-0.04,0c0.14,0.08-0.02-0.03-0.02-0.03c0.01,0,0.1,0.09,0.11,0.1c0.04,0.04,0.07,0.07,0.1,0.11
			c-0.03-0.03-0.1-0.17-0.03-0.02c0.02,0.04,0.05,0.09,0.07,0.13c0.01,0.02,0.06,0.14,0.01,0.02c-0.05-0.13,0.04,0.13,0.04,0.17
			c0.01,0.04,0.03,0.11,0.03,0.15c0.01-0.25-0.01-0.04-0.01,0.02c0,0.06-0.03,0.33,0,0.15c-0.02,0.12-0.05,0.25-0.08,0.36
			C16.77,7,16.75,7.06,16.73,7.12c0,0.01-0.06,0.15-0.02,0.06c0.04-0.11-0.04,0.07-0.05,0.1c-0.03,0.07-0.07,0.14-0.11,0.21
			c-0.11,0.2-0.24,0.39-0.37,0.58c-0.06,0.09,0.01-0.01,0.02-0.02c-0.04,0.05-0.08,0.09-0.12,0.14c-0.09,0.1-0.18,0.21-0.28,0.3
			c-0.16,0.16-0.33,0.31-0.51,0.46c0.15-0.13-0.03,0.02-0.09,0.06c-0.11,0.07-0.22,0.13-0.33,0.19c-0.02,0.01-0.14,0.06-0.03,0.02
			c0.12-0.04-0.04,0.01-0.07,0.02c-0.01,0-0.11,0.03-0.12,0.03c-0.03-0.05,0.21,0.01,0.04-0.01c0.25,0.04,0.09,0.02,0.04,0
			c0.03,0.02,0.16,0.1,0.04,0.01c0,0,0.15,0.14,0.08,0.06c-0.08-0.08,0.09,0.18,0.01,0.03c-0.01-0.02-0.07-0.11-0.06-0.12
			c-0.01,0.01,0.06,0.22,0.02,0.01c-0.01-0.03-0.02-0.07-0.03-0.1c-0.01-0.05,0-0.21-0.02-0.08c-0.01,0.14,0,0,0-0.04
			c0-0.06,0-0.11,0-0.17c0-0.02,0-0.12,0.01-0.13c-0.02,0.02-0.04,0.2,0,0.04C14.9,8.26,15.09,7.79,15.2,7.3
			c0.12-0.51-0.16-1.11-0.7-1.23c-0.51-0.12-1.1,0.15-1.23,0.7c-0.13,0.54-0.35,1.05-0.44,1.6c-0.1,0.65-0.05,1.33,0.28,1.92
			c0.41,0.75,1.22,1.05,2.04,0.9c0.66-0.12,1.24-0.55,1.74-0.98c1.04-0.9,1.88-2.21,1.98-3.6c0.1-1.44-0.97-2.87-2.47-2.88
			c-0.77,0-1.56,0.37-2.08,0.93C13.78,5.25,13.47,6,13.28,6.77c-0.13,0.51,0.16,1.11,0.7,1.23C14.49,8.12,15.07,7.84,15.2,7.3
			L15.2,7.3z"/>
  <path fill="#A03048" d="M4.76,9.91c0.02,0.17,0.03,0.33,0.03,0.5c0,0.09-0.01,0.18-0.01,0.27c0,0.02-0.01,0.16,0,0.02
			c0.01-0.14-0.01,0.03-0.01,0.06c-0.03,0.17-0.08,0.33-0.14,0.49c-0.06,0.18,0.08-0.16-0.03,0.05c-0.02,0.03-0.03,0.06-0.05,0.09
			c-0.06,0.12,0-0.02,0.04-0.04c-0.02,0.01-0.06,0.06-0.07,0.07c-0.08,0.1,0.16-0.1,0.05-0.04c-0.1,0.06,0.1-0.04,0.09-0.04
			c-0.03,0.01-0.15,0.03,0.01,0c0.14-0.03,0.05-0.01,0.01-0.01c0.28,0.01,0.14,0.03,0.08,0.01c-0.15-0.07,0.17,0.1-0.03-0.01
			c-0.03-0.02-0.06-0.03-0.08-0.05C4.5,11.2,4.7,11.3,4.7,11.32c-0.01-0.03-0.11-0.11-0.14-0.14c-0.12-0.12,0.11,0.17-0.02-0.04
			c-0.04-0.07-0.08-0.13-0.11-0.2c-0.04-0.07-0.03-0.14,0.02,0.06c-0.01-0.03-0.02-0.06-0.04-0.09c-0.02-0.06-0.04-0.13-0.06-0.19
			c-0.02-0.08-0.04-0.15-0.06-0.23c-0.01-0.03-0.01-0.07-0.02-0.1c-0.01-0.03-0.03-0.19-0.01-0.03c0.02,0.17-0.01-0.1-0.01-0.14
			c-0.01-0.07-0.01-0.13-0.01-0.2c-0.01-0.18-0.01-0.35,0-0.53c0-0.02,0.01-0.15,0.01-0.15c0,0-0.03,0.2-0.01,0.08
			c0.02-0.07,0.03-0.15,0.05-0.22c0-0.01,0.06-0.25,0.08-0.25c0.01,0-0.09,0.17-0.03,0.07c0.02-0.04,0.04-0.08,0.07-0.12
			c0.13-0.21-0.08,0.1,0.02-0.03c0.02-0.02,0.11-0.09,0-0.01C4.32,8.93,4.41,8.86,4.44,8.85C4.41,8.86,4.22,8.91,4.38,8.88
			c0,0-0.21,0.03-0.09,0.02c0.11-0.01-0.09-0.01-0.09-0.01C4.34,8.91,4.15,8.9,4.15,8.86c0,0,0.11,0.06,0.13,0.07
			c0.14,0.08-0.03,0.01-0.03-0.03c0,0.02,0.16,0.16,0.17,0.18C4.52,9.2,4.31,8.92,4.43,9.11c0.05,0.07,0.09,0.15,0.14,0.23
			C4.6,9.4,4.63,9.5,4.67,9.55C4.66,9.53,4.59,9.34,4.65,9.5c0.01,0.04,0.03,0.08,0.04,0.13C4.71,9.7,4.73,9.77,4.75,9.85
			c0.01,0.04,0.03,0.18,0.01,0.02C4.74,9.69,4.76,9.88,4.76,9.91c0.03,0.52,0.44,1.03,1,1c0.52-0.02,1.03-0.44,1-1
			C6.7,8.88,6.18,7.81,5.31,7.23C4.74,6.84,3.97,6.79,3.37,7.16c-0.52,0.32-0.84,0.89-1,1.47c-0.13,0.49-0.16,1.02-0.12,1.53
			c0.03,0.48,0.1,0.97,0.28,1.42c0.23,0.56,0.54,1.03,1.04,1.39c0.46,0.34,1.14,0.49,1.69,0.3c0.71-0.25,1.09-0.86,1.32-1.54
			c0.19-0.57,0.26-1.2,0.18-1.8C6.72,9.63,6.67,9.41,6.47,9.2C6.29,9.03,6.01,8.9,5.76,8.91C5.28,8.93,4.69,9.35,4.76,9.91
			L4.76,9.91z"/>
  <path fill="#A03048" d="M9.21,6.69c0.04-0.17,0.08-0.33,0.14-0.5C9.38,6.1,9.41,6,9.45,5.91c0.02-0.04,0.03-0.08,0.05-0.12
			c-0.04,0.09-0.04,0.09,0,0c0.16-0.32,0.34-0.62,0.54-0.92C10.1,4.77,10,4.92,10,4.92c0-0.01,0.09-0.1,0.11-0.11
			C10,4.87,9.94,4.95,9.81,4.94C9.54,4.93,9.83,4.9,9.83,4.96c0,0-0.18-0.07-0.07-0.02C9.86,5,9.66,4.83,9.74,4.92
			c0,0,0.08,0.08,0.08,0.08c-0.01,0-0.1-0.16-0.05-0.06C9.8,5,9.84,5.06,9.87,5.12c0.06,0.09-0.04-0.06-0.03-0.08
			c0,0.01,0.04,0.11,0.05,0.14c0.02,0.08,0.04,0.16,0.06,0.25c0.03,0.11-0.02-0.08-0.01-0.08C9.93,5.35,9.94,5.43,9.94,5.45
			c0,0.07,0.01,0.15,0.01,0.22c0,0.16-0.01,0.32-0.03,0.48c0,0.04-0.03,0.19,0,0C9.92,6.19,9.91,6.24,9.9,6.28
			C9.89,6.37,9.87,6.46,9.85,6.55C9.81,6.74,9.76,6.93,9.71,7.11C9.66,7.29,9.6,7.45,9.53,7.62c-0.02,0.04-0.08,0.18,0,0
			c-0.02,0.03-0.03,0.07-0.05,0.1C9.45,7.8,9.41,7.88,9.36,7.95C9.27,8.12,9.46,7.84,9.34,7.99C9.33,8,9.23,8.09,9.33,8.01
			C9.43,7.92,9.34,8,9.31,8.01c0.01,0,0.18-0.05,0.07-0.03c-0.12,0.02,0.09,0,0.09,0c-0.01-0.01-0.09,0-0.11,0
			C9.26,7.99,9.52,8.03,9.42,7.98C9.39,7.97,9.25,7.91,9.37,7.97C9.5,8.04,9.36,7.95,9.33,7.94C9.23,7.89,9.4,7.98,9.39,7.99
			c0,0-0.11-0.1-0.11-0.11c0-0.01,0.1,0.16,0.04,0.05C9.31,7.89,9.28,7.84,9.25,7.8c-0.07-0.1,0.03,0.07,0.02,0.06
			C9.25,7.85,9.23,7.74,9.22,7.71C9.21,7.68,9.2,7.64,9.19,7.6c0-0.02-0.04-0.19-0.02-0.07c0.02,0.12,0-0.03,0-0.05
			c0-0.08-0.01-0.16-0.01-0.24c0-0.24,0.02-0.48,0.04-0.72c0.05-0.52-0.49-1.02-1-1c-0.58,0.03-0.95,0.44-1,1
			C7.1,7.71,7.25,9.1,8.42,9.72c0.58,0.31,1.32,0.36,1.91,0.01c0.56-0.33,0.85-0.88,1.09-1.46c0.37-0.92,0.63-2.01,0.51-3.01
			c-0.07-0.62-0.26-1.18-0.68-1.65C10.81,3.1,10.06,2.81,9.4,3C8.71,3.18,8.29,3.82,7.96,4.4c-0.3,0.55-0.54,1.14-0.68,1.75
			c-0.12,0.51,0.16,1.11,0.7,1.23C8.49,7.5,9.08,7.23,9.21,6.69L9.21,6.69z"/>
  <path fill="#A03048" d="M11.42,13.8c1.16,0.93,1.88,2.2,2.49,3.54c0.15,0.32,0.3,0.65,0.43,0.98c0.05,0.13,0.11,0.26,0.15,0.39
			c0.02,0.07,0.04,0.13,0.05,0.2c0.01,0.1-0.04,0.1,0.03,0.01c-0.34,0.41-1.42,0.2-1.87,0.18c-1.69-0.09-3.36-0.38-4.97-0.92
			c-0.27-0.09-1.38-0.35-1.42-0.72c-0.02-0.17,0.29-0.42,0.4-0.53c0.32-0.31,0.66-0.59,0.98-0.89c0.69-0.61,1.35-1.29,2.08-1.84
			C10.18,13.91,10.93,13.42,11.42,13.8c0.42,0.34,1,0.41,1.41,0c0.35-0.35,0.42-1.07,0-1.41c-0.89-0.71-1.9-0.9-2.98-0.49
			c-1.06,0.4-1.87,1.21-2.69,1.95c-0.82,0.73-1.88,1.45-2.47,2.39c-0.63,1.01-0.42,2.22,0.52,2.94c0.85,0.65,2.04,0.96,3.06,1.24
			c1.11,0.3,2.25,0.48,3.4,0.59c1.04,0.1,2.26,0.27,3.27-0.05c1.19-0.38,1.82-1.51,1.5-2.71c-0.15-0.59-0.45-1.15-0.7-1.71
			c-0.23-0.5-0.46-0.99-0.73-1.47c-0.56-1.01-1.27-1.97-2.18-2.7c-0.42-0.34-1-0.41-1.41,0C11.07,12.74,10.99,13.47,11.42,13.8
			L11.42,13.8z"/>
  <path fill="#A03048" d="M3.06,9.58c0.12,0.48,0.23,0.95,0.35,1.43c0.06,0.24,0.25,0.47,0.46,0.6c0.11,0.07,0.24,0.11,0.37,0.12
				c0.13,0.03,0.27,0.02,0.4-0.02c0.24-0.08,0.48-0.23,0.6-0.46c0.13-0.24,0.17-0.5,0.1-0.77C5.22,10,5.11,9.52,4.99,9.05
				c-0.06-0.24-0.25-0.47-0.46-0.6C4.42,8.38,4.29,8.34,4.16,8.33C4.03,8.3,3.89,8.31,3.76,8.35c-0.24,0.08-0.48,0.23-0.6,0.46
				C3.03,9.05,3,9.31,3.06,9.58L3.06,9.58z"/>
  <path fill="#A03048" d="M9.03,5.01c-0.37,0.7-0.67,1.44-0.87,2.2c-0.07,0.25-0.03,0.55,0.1,0.77c0.12,0.21,0.36,0.41,0.6,0.46
				C9.11,8.5,9.4,8.49,9.62,8.34C9.84,8.2,10.01,8,10.08,7.74c0.11-0.41,0.25-0.81,0.41-1.2c-0.03,0.08-0.07,0.16-0.1,0.24
				c0.11-0.26,0.23-0.51,0.36-0.76c0.12-0.23,0.17-0.51,0.1-0.77c-0.06-0.23-0.24-0.48-0.46-0.6c-0.23-0.12-0.51-0.18-0.77-0.1
				C9.38,4.63,9.15,4.78,9.03,5.01L9.03,5.01z"/>
  <path fill="#A03048" d="M15.11,5.93c-0.01,0.18-0.02,0.36-0.05,0.55c0.01-0.09,0.02-0.18,0.04-0.27c-0.07,0.48-0.19,0.94-0.38,1.39
				c0.03-0.08,0.07-0.16,0.1-0.24c-0.14,0.32-0.3,0.63-0.5,0.92c-0.29,0.44-0.1,1.13,0.36,1.37c0.5,0.27,1.06,0.11,1.37-0.36
				c0.66-0.99,1.02-2.17,1.06-3.36c0.02-0.52-0.47-1.02-1-1C15.55,4.96,15.13,5.37,15.11,5.93L15.11,5.93z"/>
  <path fill="#A03048" d="M18.05,11.93c0,0.09-0.01,0.19-0.02,0.28c0.01-0.09,0.02-0.18,0.04-0.27c-0.03,0.21-0.08,0.41-0.17,0.61
				c0.03-0.08,0.07-0.16,0.1-0.24c-0.08,0.19-0.18,0.36-0.31,0.52c0.05-0.07,0.1-0.13,0.16-0.2c-0.04,0.05-0.07,0.09-0.11,0.14
				c-0.18,0.2-0.29,0.44-0.29,0.71c0,0.25,0.11,0.54,0.29,0.71c0.19,0.17,0.44,0.3,0.71,0.29c0.26-0.01,0.53-0.1,0.71-0.29
				c0.15-0.17,0.29-0.35,0.41-0.53c0.12-0.19,0.21-0.4,0.29-0.61c0.05-0.13,0.09-0.27,0.12-0.41c0.05-0.23,0.08-0.46,0.08-0.69
				c0-0.25-0.11-0.53-0.29-0.71c-0.17-0.17-0.46-0.3-0.71-0.29c-0.26,0.01-0.53,0.1-0.71,0.29C18.16,11.42,18.05,11.66,18.05,11.93
				L18.05,11.93z"/>
  <path fill="#A03048" d="M9.95,15.19c1.25,1.39,2.5,2.78,3.75,4.17c0.35,0.39,1.06,0.38,1.41,0c0.38-0.42,0.37-1,0-1.41
				c-1.25-1.39-2.5-2.78-3.75-4.17c-0.35-0.39-1.06-0.38-1.41,0C9.57,14.19,9.58,14.77,9.95,15.19L9.95,15.19z"/>
  <path fill="#A03048" d="M13.97,16.99c-0.26-0.17-0.6-0.41-0.79-0.56c-0.13-0.11-0.27-0.22-0.39-0.35c-0.07-0.07-0.13-0.14-0.2-0.21
				c-0.02-0.02-0.15-0.19-0.08-0.1c-0.1-0.13-0.18-0.28-0.25-0.43c-0.01-0.03-0.08-0.23-0.11-0.38c-0.03-0.18,0,0.21-0.01-0.11
				c0-0.11,0.01-0.07-0.01,0.01c0.03-0.14,0.02-0.03-0.04,0.04c-0.08,0.13-0.22,0.16-0.42,0.09c-0.17,0.11-0.33,0.11-0.45,0.01
				c-0.02,0.01-0.07-0.12,0,0.02c0.05,0.09,0.1,0.17,0.15,0.25c0.09,0.15,0.17,0.31,0.25,0.47c0.16,0.32,0.29,0.6,0.4,0.9
				c0.13,0.35,0.25,0.71,0.34,1.07c0.05,0.19,0.1,0.38,0.14,0.57c0.01,0.02,0.06,0.22,0.05,0.23c-0.01,0.01,0.02-0.28,0.03-0.3
				c0.12-0.12,0.24-0.24,0.36-0.36c0.45-0.01,0.54-0.03,0.27-0.07c-0.04-0.01-0.09-0.02-0.13-0.03c-0.13-0.03-0.26-0.05-0.39-0.08
				c-0.26-0.05-0.52-0.11-0.78-0.16c-0.54-0.11-1.09-0.22-1.63-0.33C9.23,17,8.17,16.79,7.1,16.57c0.15,0.56,0.29,1.11,0.44,1.67
				c1.02-0.91,2.05-1.82,3.07-2.73c0.4-0.36,0.37-1.05,0-1.41c-0.4-0.4-1.01-0.36-1.41,0c-1.02,0.91-2.05,1.82-3.07,2.73
				c-0.54,0.48-0.28,1.52,0.44,1.67c1.43,0.29,2.87,0.58,4.3,0.88c0.73,0.15,1.46,0.34,2.19,0.43c0.5,0.07,1.01-0.13,1.28-0.58
				c0.23-0.38,0.22-0.79,0.15-1.21c-0.22-1.31-0.75-2.62-1.41-3.77c-0.39-0.67-1-1.29-1.86-1.03c-0.78,0.24-1.15,1.11-1.06,1.87
				c0.19,1.7,1.47,2.74,2.8,3.63c0.45,0.3,1.11,0.09,1.37-0.36C14.61,17.87,14.42,17.3,13.97,16.99L13.97,16.99z"/>
  <path fill="#A03048" d="M8.27,16.58c0.62,0.8,1.49,1.36,2.43,1.7c0.22,0.08,0.57,0.03,0.77-0.1c0.19-0.12,0.32-0.27,0.41-0.48
				c0.08-0.2,0.12-0.44,0.05-0.65c-0.08-0.24-0.23-0.48-0.46-0.6c-0.28-0.14-0.55-0.27-0.83-0.41c-0.24-0.12-0.5-0.17-0.77-0.1
				c-0.23,0.06-0.48,0.24-0.6,0.46c-0.12,0.23-0.18,0.51-0.1,0.77c0.08,0.24,0.23,0.48,0.46,0.6c0.28,0.14,0.55,0.27,0.83,0.41
				c0.26-0.61,0.51-1.22,0.77-1.83c-0.08-0.03-0.16-0.06-0.24-0.09c0.08,0.03,0.16,0.07,0.24,0.1c-0.34-0.15-0.67-0.34-0.96-0.56
				c0.07,0.05,0.13,0.1,0.2,0.16c-0.29-0.23-0.56-0.49-0.79-0.79c-0.15-0.19-0.48-0.29-0.71-0.29c-0.25,0-0.54,0.11-0.71,0.29
				c-0.17,0.19-0.3,0.44-0.29,0.71c0.01,0.09,0.02,0.18,0.04,0.27C8.06,16.31,8.14,16.46,8.27,16.58L8.27,16.58z"/>
  <path fill="#A03048" d="M10.4,16.72c1.29,0,1.29-2,0-2C9.11,14.72,9.11,16.72,10.4,16.72L10.4,16.72z"/>
</svg>
