<?xml version="1.0" encoding="utf-8"?>
<!-- Generator: Adobe Illustrator 24.3.0, SVG Export Plug-In . SVG Version: 6.00 Build 0)  -->
<svg version="1.1" xmlns="http://www.w3.org/2000/svg" xmlns:xlink="http://www.w3.org/1999/xlink" x="0px" y="0px"
	 viewBox="0 0 24 24" style="enable-background:new 0 0 24 24;" xml:space="preserve">
<style type="text/css">
	.st0{fill:#BABABA;}
</style>
<g id="Layer_1">
	<g>
		<path class="st0" d="M4.62,12.5c-0.2-1.34-0.14-2.81,0.64-3.97c0.76-1.13,2.1-1.48,3.38-1.67c3.13-0.45,6.34-0.39,9.49-0.31
			c0.86,0.02,1.33-1.12,0.71-1.71c-0.91-0.86-1.81-1.72-2.72-2.58c-0.93-0.89-2.35,0.53-1.41,1.41c0.91,0.86,1.81,1.72,2.72,2.58
			c0.24-0.57,0.47-1.14,0.71-1.71c-1.94-0.05-3.89-0.08-5.84,0c-1.75,0.07-3.6,0.15-5.31,0.6C5.43,5.55,4.08,6.46,3.31,7.9
			c-0.85,1.59-0.88,3.38-0.61,5.13c0.08,0.54,0.75,0.82,1.23,0.7C4.5,13.57,4.71,13.03,4.62,12.5L4.62,12.5z"/>
	</g>
	<g>
		<path class="st0" d="M16.25,8.9c0.76-0.77,1.51-1.54,2.27-2.32c0.11-0.11,0.21-0.22,0.32-0.32c0.37-0.37,0.4-1.05,0-1.41
			c-0.4-0.36-1.02-0.4-1.41,0c-0.76,0.77-1.51,1.54-2.27,2.32c-0.11,0.11-0.21,0.22-0.32,0.32c-0.37,0.37-0.4,1.05,0,1.41
			C15.23,9.26,15.86,9.3,16.25,8.9L16.25,8.9z"/>
	</g>
	<g>
		<path class="st0" d="M19.34,11.2c-0.14,1.39-0.04,2.94-0.7,4.21c-0.64,1.22-1.82,1.45-3.08,1.54c-3.24,0.23-6.49,0.13-9.73,0.04
			c0.24,0.57,0.47,1.14,0.71,1.71c0.98-1.12,1.96-2.23,2.94-3.35c0.85-0.96-0.56-2.38-1.41-1.41c-0.98,1.12-1.96,2.23-2.94,3.35
			C4.55,17.94,4.93,18.97,5.82,19c1.91,0.05,3.82,0.11,5.72,0.1c1.79-0.01,3.64,0,5.41-0.3c1.5-0.25,2.77-1.09,3.46-2.47
			c0.8-1.6,0.76-3.38,0.93-5.12C21.46,9.92,19.46,9.93,19.34,11.2L19.34,11.2z"/>
	</g>
	<g>
		<path class="st0" d="M9.39,20.31c-0.83-0.88-1.66-1.76-2.49-2.64c-0.12-0.13-0.24-0.25-0.36-0.38c-0.36-0.38-1.06-0.39-1.41,0
			c-0.38,0.41-0.38,1.01,0,1.41c0.83,0.88,1.66,1.76,2.49,2.64c0.12,0.13,0.24,0.25,0.36,0.38c0.36,0.38,1.06,0.39,1.41,0
			C9.76,21.32,9.77,20.72,9.39,20.31L9.39,20.31z"/>
	</g>
</g>
<g id="Layer_2">
</g>
</svg>
