<svg xmlns="http://www.w3.org/2000/svg" viewBox="0 0 24 24">
  <path fill="#A03048" d="M12.96,14.55c2.17,2.48,4.52,4.81,7.01,6.97c0.41,0.35,1.01,0.4,1.41,0c0.36-0.36,0.41-1.06,0-1.41c-2.5-2.16-4.84-4.49-7.01-6.97c-0.36-0.41-1.05-0.36-1.41,0C12.56,13.53,12.6,14.14,12.96,14.55L12.96,14.55z"/>
  <path fill="#A03048" d="M14.53,14.34c1.59-2.32,1.98-5.6,0.87-8.19c-0.53-1.23-1.4-2.31-2.55-3c-1.31-0.78-2.9-0.96-4.4-0.87C6.99,2.38,5.59,2.78,4.5,3.8c-1,0.95-1.61,2.3-1.91,3.63c-0.33,1.48-0.42,3.12,0.11,4.57c0.47,1.26,1.35,2.3,2.48,3.02c2.63,1.7,6.42,1.3,8.99-0.32c1.09-0.68,0.08-2.41-1.01-1.73c-1.71,1.08-4.14,1.53-6.07,0.79c-0.86-0.33-1.66-0.93-2.15-1.71c-0.63-0.99-0.7-2.18-0.56-3.33C4.51,7.7,4.83,6.65,5.42,5.79c0.6-0.86,1.5-1.32,2.52-1.46c2.16-0.3,4.33,0.2,5.43,2.21c1.14,2.09,0.74,4.88-0.57,6.79C12.07,14.4,13.81,15.4,14.53,14.34L14.53,14.34z"/>
</svg>
