<svg xmlns="http://www.w3.org/2000/svg" viewBox="0 0 24 24">
  <path fill="#A03048" d="M2.17,16.86c-0.44,1.98-0.36,4.62,2.14,5.04c1.23,0.21,2.56,0.09,3.81,0.09c1.3,0,2.6,0,3.9-0.01c2.51-0.02,5.12,0.14,7.62-0.1c0.95-0.09,1.72-0.54,2.11-1.43c0.51-1.17-0.08-2.25,0.1-3.44c0.19-1.26-1.74-1.8-1.93-0.53c-0.13,0.89,0.07,1.67,0.09,2.55c0.02,0.99-0.61,0.87-1.42,0.89c-1.95,0.03-3.9,0.05-5.85,0.07c-1.89,0.02-3.78,0.02-5.68,0.02c-0.73,0-2.09,0.25-2.72-0.16c-0.74-0.49-0.39-1.74-0.24-2.43C4.37,16.14,2.44,15.6,2.17,16.86L2.17,16.86z"/>
  <path fill="#A03048" d="M11.08,2.95c-0.2,4.34-0.29,8.69-0.25,13.04c0.01,1.29,2.01,1.29,2,0c-0.03-4.35,0.05-8.7,0.25-13.04C13.14,1.66,11.14,1.67,11.08,2.95L11.08,2.95z"/>
  <path fill="#A03048" d="M11.63,2.12c-2.16,1.5-4.19,3.2-6.04,5.07c-0.37,0.37-0.4,1.05,0,1.41c0.4,0.36,1.02,0.4,1.41,0c0.88-0.89,1.8-1.75,2.76-2.56c0.23-0.19,0.46-0.39,0.7-0.57c0.12-0.1,0.25-0.2,0.37-0.3c0.06-0.04,0.11-0.09,0.17-0.13C11.06,5,11.07,5,11.02,5.04c0.03-0.02,0.06-0.04,0.08-0.06c0.51-0.39,1.02-0.76,1.54-1.13c0.43-0.3,0.67-0.89,0.36-1.37C12.73,2.05,12.09,1.8,11.63,2.12L11.63,2.12z"/>
  <path fill="#A03048" d="M11.36,3.7c2.04,1.59,3.92,3.38,5.6,5.35c0.34,0.4,1.07,0.38,1.41,0c0.39-0.43,0.36-0.99,0-1.41c-1.68-1.97-3.56-3.76-5.6-5.35c-0.41-0.32-1.02-0.43-1.41,0C11.03,2.64,10.92,3.35,11.36,3.7L11.36,3.7z"/>
</svg>
