<?xml version="1.0" encoding="utf-8"?>
<!-- Generator: Adobe Illustrator 24.3.0, SVG Export Plug-In . SVG Version: 6.00 Build 0)  -->
<svg version="1.1" xmlns="http://www.w3.org/2000/svg" xmlns:xlink="http://www.w3.org/1999/xlink" x="0px" y="0px"
	 viewBox="0 0 24 24" style="enable-background:new 0 0 24 24;" xml:space="preserve">
<g id="Layer_1">
</g>
<g id="Layer_2">
	<g>
		<path d="M16.42,4.3c0.12-0.09,0.25-0.16,0.39-0.22c-0.08,0.03-0.16,0.07-0.24,0.1c0.17-0.07,0.34-0.11,0.51-0.14
			C17,4.05,16.91,4.07,16.82,4.08c0.21-0.03,0.42-0.03,0.62,0c-0.09-0.01-0.18-0.02-0.27-0.04c0.21,0.03,0.41,0.08,0.6,0.16
			c-0.08-0.03-0.16-0.07-0.24-0.1c0.11,0.05,0.21,0.1,0.32,0.17c0.08,0.05,0.21,0.19-0.02-0.03c0.04,0.04,0.09,0.08,0.13,0.12
			c0.04,0.04,0.08,0.09,0.12,0.13c0.11,0.12-0.16-0.23-0.02-0.02c0.07,0.1,0.12,0.21,0.17,0.32c-0.03-0.08-0.07-0.16-0.1-0.24
			c0.08,0.18,0.13,0.37,0.15,0.56c-0.01-0.09-0.02-0.18-0.04-0.27c0.03,0.21,0.03,0.42,0,0.63c0.01-0.09,0.02-0.18,0.04-0.27
			c-0.03,0.2-0.08,0.38-0.15,0.57c0.03-0.08,0.07-0.16,0.1-0.24c-0.05,0.11-0.1,0.22-0.17,0.32c-0.05,0.08-0.19,0.21,0.03-0.02
			c-0.04,0.04-0.08,0.09-0.12,0.14c-0.04,0.04-0.09,0.08-0.13,0.12c-0.12,0.11,0.23-0.16,0.02-0.02c-0.1,0.07-0.21,0.12-0.32,0.17
			c0.08-0.03,0.16-0.07,0.24-0.1c-0.18,0.08-0.37,0.13-0.57,0.15c0.09-0.01,0.18-0.02,0.27-0.04c-0.21,0.03-0.42,0.03-0.63,0
			c0.09,0.01,0.18,0.02,0.27,0.04c-0.2-0.03-0.38-0.08-0.57-0.15c0.08,0.03,0.16,0.07,0.24,0.1c-0.11-0.05-0.22-0.1-0.32-0.17
			c-0.08-0.05-0.2-0.19,0.02,0.02c-0.04-0.04-0.09-0.08-0.14-0.12c-0.04-0.04-0.08-0.09-0.12-0.13c-0.11-0.12,0.16,0.23,0.02,0.02
			c-0.07-0.1-0.12-0.21-0.17-0.32c0.03,0.08,0.07,0.16,0.1,0.24c-0.08-0.19-0.13-0.38-0.15-0.57c0.01,0.09,0.02,0.18,0.04,0.27
			c-0.02-0.2-0.02-0.4,0-0.6c-0.01,0.09-0.02,0.18-0.04,0.27c0.03-0.2,0.08-0.39,0.15-0.58c-0.03,0.08-0.07,0.16-0.1,0.24
			c0.05-0.11,0.1-0.22,0.17-0.32c0.02-0.03,0.03-0.05,0.05-0.08c0.06-0.08,0.03-0.05-0.07,0.09c0.04-0.04,0.08-0.09,0.12-0.14
			c0.36-0.38,0.4-1.05,0-1.41c-0.39-0.36-1.02-0.4-1.41,0c-0.94,0.96-1.11,2.4-0.58,3.61c0.49,1.11,1.73,1.79,2.93,1.73
			c0.59-0.03,1.2-0.19,1.68-0.55c0.56-0.41,0.95-0.94,1.16-1.6c0.37-1.13,0.06-2.53-0.87-3.3c-1.06-0.88-2.69-1.09-3.86-0.28
			c-0.22,0.15-0.39,0.33-0.46,0.6c-0.07,0.24-0.04,0.56,0.1,0.77C15.32,4.36,15.96,4.62,16.42,4.3L16.42,4.3z"/>
	</g>
	<g>
		<path d="M16.75,17.71c0.09-0.03,0.19-0.06,0.28-0.08c0.2-0.05-0.2,0.01-0.06,0.01c0.05,0,0.1-0.01,0.15-0.01
			c0.09,0,0.18,0,0.26,0.01c0.14,0.01-0.27-0.05-0.06-0.01c0.06,0.01,0.11,0.02,0.17,0.04c0.09,0.02,0.19,0.08,0.28,0.09
			c-0.02,0-0.22-0.11-0.08-0.03c0.04,0.02,0.09,0.05,0.13,0.07c0.04,0.02,0.08,0.05,0.12,0.08c0.14,0.08-0.05-0.03-0.06-0.05
			c0.05,0.08,0.19,0.17,0.25,0.24c0.09,0.09-0.04,0.02-0.04-0.06c0,0.03,0.07,0.1,0.09,0.13c0.04,0.06,0.08,0.2,0.13,0.24
			c-0.02-0.04-0.04-0.08-0.05-0.13c0.01,0.04,0.03,0.08,0.04,0.12c0.01,0.04,0.02,0.08,0.03,0.12c0.01,0.04,0.02,0.08,0.03,0.12
			c0.05,0.19-0.02-0.24,0,0.01c0.01,0.09,0.01,0.18,0,0.28c0,0.02,0,0.04,0,0.06c-0.01,0.11-0.01,0.08,0.02-0.08
			c-0.01,0.03-0.02,0.09-0.02,0.12c-0.02,0.1-0.05,0.2-0.08,0.29c-0.04,0.13-0.03-0.04,0.03-0.07c-0.03,0.01-0.07,0.13-0.09,0.16
			c-0.01,0.03-0.1,0.13-0.1,0.15c0-0.02,0.16-0.19,0.05-0.06c-0.07,0.07-0.14,0.14-0.21,0.21c-0.07,0.07-0.09,0.01,0.07-0.05
			c-0.04,0.01-0.08,0.06-0.12,0.08c-0.09,0.06-0.19,0.1-0.28,0.16c0.2-0.13,0.14-0.05,0.05-0.02c-0.05,0.02-0.09,0.03-0.14,0.04
			c-0.09,0.02-0.17,0.04-0.26,0.06c-0.14,0.03,0.27-0.02,0.06-0.01c-0.04,0-0.08,0-0.12,0c-0.06,0-0.12,0-0.18,0
			c-0.19,0,0.23,0.05,0.03,0.01c-0.09-0.02-0.17-0.04-0.26-0.07c-0.08-0.03-0.17-0.1,0.05,0.03c-0.03-0.02-0.07-0.03-0.11-0.05
			c-0.09-0.04-0.17-0.1-0.25-0.15c-0.14-0.09,0.06,0.03,0.06,0.05c-0.01-0.04-0.12-0.11-0.15-0.14c-0.06-0.06-0.11-0.15-0.18-0.2
			c0.03,0.04,0.06,0.07,0.09,0.11c-0.02-0.03-0.04-0.06-0.07-0.1c-0.02-0.03-0.04-0.07-0.06-0.1c-0.02-0.03-0.04-0.07-0.06-0.1
			c-0.01-0.02-0.02-0.04-0.03-0.05c-0.04-0.1-0.03-0.07,0.03,0.08c0.01-0.07-0.07-0.2-0.08-0.28c0-0.02-0.01-0.04-0.01-0.06
			c-0.02-0.11-0.02-0.08,0.01,0.09c0.01-0.05-0.01-0.12-0.01-0.18c0-0.04,0-0.08,0-0.12c0-0.04,0-0.08,0.01-0.12
			c-0.01,0.05-0.01,0.1-0.02,0.15c0.05-0.08,0.06-0.25,0.09-0.35c0.01-0.02,0.04-0.08,0.04-0.11c-0.06,0.15-0.07,0.17-0.03,0.07
			c0.01-0.02,0.02-0.04,0.03-0.05c0.03-0.05,0.06-0.1,0.09-0.16c0.04-0.06,0.17-0.19-0.02,0.01c0.08-0.08,0.14-0.17,0.22-0.24
			c0.02-0.02,0.1-0.07,0.11-0.1c-0.04,0.03-0.07,0.06-0.11,0.08c0.03-0.02,0.07-0.05,0.1-0.07c0.03-0.02,0.07-0.04,0.1-0.06
			c0.06-0.03,0.32-0.14,0.03-0.03c0.25-0.1,0.46-0.22,0.6-0.46c0.13-0.21,0.18-0.53,0.1-0.77c-0.15-0.47-0.71-0.91-1.23-0.7
			c-0.67,0.27-1.2,0.67-1.61,1.28c-0.34,0.5-0.53,1.14-0.52,1.75c0.02,1.33,0.91,2.5,2.15,2.95c1.14,0.42,2.59,0.03,3.37-0.89
			c0.88-1.03,1.05-2.55,0.35-3.73c-0.73-1.23-2.34-1.83-3.7-1.37c-0.49,0.17-0.87,0.69-0.7,1.23C15.68,17.51,16.22,17.9,16.75,17.71
			L16.75,17.71z"/>
	</g>
	<g>
		<path d="M6.6,11.18c0.14,0.16-0.12-0.2-0.01-0.02c0.02,0.03,0.04,0.07,0.06,0.1c0.03,0.04,0.05,0.09,0.07,0.13
			c0.04,0.08,0.05,0.19-0.01-0.05c0.03,0.1,0.07,0.19,0.09,0.28c0.01,0.04,0.02,0.08,0.03,0.12c0.05,0.2-0.01-0.22,0-0.03
			c0,0.1,0.01,0.2,0.01,0.3c0,0.04-0.04,0.22,0,0.04c0.04-0.18,0,0.01-0.01,0.04c-0.02,0.1-0.05,0.19-0.08,0.29
			c-0.03,0.11-0.05,0,0.03-0.07c-0.03,0.03-0.06,0.12-0.08,0.16c-0.03,0.05-0.06,0.1-0.09,0.15c-0.06,0.1-0.05-0.02,0.05-0.06
			c-0.06,0.03-0.15,0.16-0.2,0.21c-0.02,0.02-0.17,0.14-0.03,0.03c0.14-0.11-0.02,0.01-0.04,0.02c-0.09,0.06-0.18,0.11-0.28,0.16
			c-0.12,0.06,0.24-0.09,0.05-0.02c-0.04,0.01-0.07,0.03-0.11,0.04c-0.09,0.03-0.19,0.04-0.28,0.07c0.24-0.07,0.16-0.02,0.06-0.01
			c-0.05,0-0.1,0.01-0.14,0.01c-0.04,0-0.08,0-0.12,0c-0.04,0-0.08,0-0.12-0.01c0.16,0.02,0.2,0.03,0.12,0.01
			c-0.08-0.02-0.17-0.04-0.25-0.06c-0.02-0.01-0.04-0.01-0.05-0.02c-0.1-0.04-0.07-0.02,0.08,0.04c-0.02-0.02-0.08-0.04-0.1-0.05
			c-0.09-0.04-0.16-0.1-0.24-0.15c-0.14-0.08,0.06,0.04,0.07,0.05c-0.03-0.05-0.11-0.09-0.15-0.13c-0.05-0.05-0.11-0.15-0.17-0.19
			c0.03,0.04,0.06,0.08,0.09,0.11c-0.02-0.03-0.04-0.06-0.07-0.09c-0.02-0.03-0.04-0.06-0.06-0.1c-0.05-0.08-0.14-0.36-0.05-0.07
			c-0.03-0.1-0.07-0.19-0.09-0.3c-0.01-0.04-0.01-0.1-0.03-0.14c0.07,0.18,0.02,0.19,0.02,0.09c0-0.1,0-0.19,0-0.29
			c0.01-0.21-0.04,0.2-0.01,0.06c0.01-0.05,0.02-0.1,0.03-0.14c0.01-0.04,0.02-0.08,0.03-0.11c0.01-0.04,0.11-0.26,0.03-0.1
			c-0.08,0.15,0.05-0.1,0.08-0.14c0.03-0.05,0.06-0.1,0.09-0.15c0.04-0.08,0.1-0.06-0.05,0.06c0.07-0.06,0.13-0.15,0.19-0.22
			c0.03-0.03,0.07-0.06,0.11-0.1c0.06-0.05,0.03-0.03-0.09,0.07c0.03-0.02,0.06-0.04,0.1-0.07c0.07-0.05,0.19-0.08,0.25-0.14
			c-0.04,0.02-0.09,0.04-0.13,0.06c0.04-0.01,0.07-0.03,0.11-0.04c0.06-0.02,0.11-0.03,0.17-0.05c0.02-0.01,0.09-0.01,0.11-0.02
			c-0.17,0.02-0.2,0.02-0.09,0.01c0.03,0,0.06,0,0.09-0.01c0.11-0.01,0.21,0,0.32,0.01c0.21,0.01-0.2-0.04-0.06-0.01
			c0.07,0.02,0.13,0.03,0.2,0.04c0.04,0.01,0.07,0.02,0.11,0.03c0.04,0.01,0.07,0.03,0.11,0.04c-0.04-0.02-0.09-0.04-0.13-0.06
			c0.07,0.07,0.22,0.11,0.3,0.17c0.02,0.02,0.07,0.05,0.09,0.07c-0.12-0.1-0.15-0.11-0.07-0.05c0.03,0.03,0.06,0.05,0.08,0.08
			c0.37,0.37,1.05,0.4,1.41,0c0.36-0.4,0.4-1.02,0-1.41C6.97,8.73,5.51,8.51,4.3,9.08c-1.09,0.51-1.83,1.79-1.75,2.99
			c0.09,1.32,0.98,2.45,2.24,2.86c1.16,0.37,2.55-0.06,3.32-1c1-1.23,0.93-2.96-0.09-4.15c-0.34-0.4-1.07-0.38-1.41,0
			C6.21,10.19,6.24,10.76,6.6,11.18L6.6,11.18z"/>
	</g>
	<g>
		<path d="M7.99,11.02c2.46-1.26,4.91-2.52,7.37-3.79c0.48-0.25,0.62-0.92,0.36-1.37c-0.29-0.49-0.89-0.61-1.37-0.36
			C11.9,6.77,9.44,8.04,6.98,9.3c-0.48,0.25-0.62,0.92-0.36,1.37C6.91,11.15,7.51,11.27,7.99,11.02L7.99,11.02z"/>
	</g>
	<g>
		<path d="M7.58,14.99c2.34,1.06,4.6,2.26,6.78,3.6c0.46,0.28,1.1,0.1,1.37-0.36c0.28-0.48,0.1-1.08-0.36-1.37
			c-2.18-1.34-4.45-2.55-6.78-3.6c-0.49-0.22-1.08-0.14-1.37,0.36C6.97,14.05,7.08,14.77,7.58,14.99L7.58,14.99z"/>
	</g>
</g>
</svg>
