<?xml version="1.0" encoding="utf-8"?>
<!-- Generator: Adobe Illustrator 24.3.0, SVG Export Plug-In . SVG Version: 6.00 Build 0)  -->
<svg version="1.1" xmlns="http://www.w3.org/2000/svg" xmlns:xlink="http://www.w3.org/1999/xlink" x="0px" y="0px"
	 viewBox="0 0 24 24" style="enable-background:new 0 0 24 24;" xml:space="preserve">
<g id="Layer_1">
	<g>
		<path d="M11.72,3.91C9.83,3.78,7.93,3.83,6.05,4.07C4.68,4.24,3.11,4.45,2.43,5.83C2.08,6.55,2.11,7.38,2.1,8.17
			c-0.01,1.02-0.01,2.04-0.02,3.06c-0.01,1.82-0.02,3.65-0.04,5.47c-0.01,1.43-0.28,3.33,0.81,4.47c1.12,1.17,3.11,0.88,4.57,0.91
			c1.97,0.04,3.94,0.08,5.91,0.12c1.53,0.03,3.27,0.29,4.76-0.14c1.77-0.5,2.36-2,2.49-3.7c0.16-2.13,0.07-4.27-0.01-6.4
			c-0.05-1.28-2.05-1.29-2,0c0.06,1.49,0.11,2.99,0.09,4.48c-0.01,0.94,0.23,2.94-0.72,3.53c-0.95,0.59-2.59,0.27-3.63,0.24
			c-1.53-0.03-3.06-0.06-4.59-0.09c-1.5-0.03-3.03,0-4.53-0.09c-0.64-0.04-1.01-0.17-1.12-0.83c-0.11-0.6-0.04-1.25-0.04-1.86
			c0.02-3,0.04-6.01,0.06-9.01c0-0.63-0.17-1.6,0.5-1.94c0.59-0.31,1.43-0.32,2.08-0.39c1.68-0.18,3.36-0.2,5.05-0.08
			C13.01,5.99,13,3.99,11.72,3.91L11.72,3.91z"/>
	</g>
	<g>
		<path d="M12.45,15.09c2.39-2.09,4.67-4.3,6.84-6.62c0.95-1.02,2.29-2.15,2.63-3.55c0.33-1.33-0.51-2.57-1.82-2.87
			c-1.37-0.31-2.55,0.43-3.52,1.32c-1.22,1.12-2.4,2.31-3.59,3.46c-1.16,1.12-2.32,2.23-3.47,3.35c-0.32,0.31-0.74,0.62-0.96,1.01
			c-0.11,0.21-0.2,0.43-0.29,0.65c-0.58,1.29-1.17,2.57-1.75,3.86c-0.31,0.68,0.23,1.84,1.13,1.47c1.46-0.61,2.92-1.21,4.37-1.82
			c0.5-0.21,0.85-0.66,0.7-1.23c-0.12-0.47-0.73-0.91-1.23-0.7c-1.46,0.61-2.92,1.21-4.37,1.82c0.38,0.49,0.75,0.98,1.13,1.47
			c0.42-0.92,0.84-1.85,1.26-2.77c0.23-0.52,0.47-1.03,0.7-1.55c0.04-0.1,0.12-0.19,0.15-0.24c0.43-0.58,1.12-1.08,1.64-1.58
			c2.02-1.95,4-3.97,6.09-5.86c0.28-0.25,1.8-1.33,1.92-0.39c0.06,0.45-0.57,1.03-0.84,1.34c-0.48,0.54-0.97,1.07-1.46,1.59
			c-2.11,2.25-4.34,4.4-6.66,6.44C10.07,14.53,11.49,15.94,12.45,15.09z"/>
	</g>
</g>
<g id="Layer_2">
</g>
</svg>
